<svg width="20" height="16" viewBox="0 0 20 16" fill="none" xmlns="http://www.w3.org/2000/svg">
    <path fill-rule="evenodd" clip-rule="evenodd" d="M3 0H10C11.66 0 13 1.34 13 3V4H11V2H2V9H7V14H5L3 16H2V15L3 14C1.34 14 0 12.66 0 11V3C0 1.34 1.34 0 3 0ZM4 11C4 10.45 3.55 10 3 10C2.45 10 2 10.45 2 11C2 11.55 2.45 12 3 12C3.55 12 4 11.55 4 11ZM18.57 5.66C18.43 5.26 18.05 5 17.6 5H10.41C9.95 5 9.58 5.26 9.43 5.66L8.01 9.77V15.28C8.01 15.66 8.32 16 8.7 16H9.32C9.7 16 10 15.62 10 15.24V14H18V15.24C18 15.62 18.31 16 18.69 16H19.3C19.68 16 19.99 15.66 19.99 15.28L20 13.91V9.77L18.57 5.66ZM17.6 6H10.41L9.38 9H18.63L17.6 6ZM10 12C9.45 12 9 11.55 9 11C9 10.45 9.45 10 10 10C10.55 10 11 10.45 11 11C11 11.55 10.55 12 10 12ZM17 11C17 11.55 17.45 12 18 12C18.55 12 19 11.55 19 11C19 10.45 18.55 10 18 10C17.45 10 17 10.45 17 11Z" fill="#FF4769"/>
</svg>
