<svg width="130" height="140" viewBox="0 0 130 140" fill="none" xmlns="http://www.w3.org/2000/svg">
<path d="M70.903 71.2904L40.7003 49.4434C39.7763 48.7784 38.4953 48.8764 37.6833 49.6861C36.8713 50.4981 36.771 51.7768 37.4406 52.7031L59.2923 82.9104C60.725 84.8821 62.9393 86.1211 65.3683 86.3101C65.5876 86.3264 65.8046 86.3334 66.0193 86.3334C68.2173 86.3334 70.3313 85.4654 71.897 83.8974C73.6166 82.1778 74.4963 79.8001 74.3073 77.3711C74.1183 74.9421 72.8793 72.7278 70.903 71.2904ZM68.5976 80.5981C67.8416 81.3518 66.7893 81.7368 65.7323 81.6551C64.6683 81.5734 63.6953 81.0274 63.07 80.1688L49.7396 61.7424L68.1613 75.0681C69.027 75.6981 69.5706 76.6711 69.6546 77.7374C69.7386 78.7991 69.3513 79.8444 68.5976 80.5981Z" fill="#0AA06E"/>
<path d="M125.855 60.718C125.853 60.711 125.855 60.7017 125.853 60.6947C125.851 60.6853 125.844 60.6783 125.841 60.669C124.413 55.3513 122.299 50.316 119.611 45.6493C119.588 45.6003 119.588 45.549 119.56 45.5C119.532 45.4533 119.488 45.4277 119.457 45.3833C117.098 41.335 114.308 37.5737 111.137 34.1623L116.146 29.1527L119.448 32.452L129.346 22.554L119.448 12.6537L109.548 22.554L112.847 25.8533L107.837 30.863C104.426 27.6943 100.665 24.9013 96.6164 22.5423C96.5721 22.512 96.5464 22.4677 96.4998 22.4397C96.4531 22.4117 96.3971 22.414 96.3504 22.3883C91.6838 19.698 86.6484 17.5863 81.3331 16.1583C81.3238 16.156 81.3168 16.149 81.3074 16.1467C81.2981 16.1443 81.2911 16.1467 81.2841 16.1467C78.2694 15.3393 75.1708 14.7513 71.9998 14.399V11.6667H75.4998C78.7174 11.6667 81.3331 9.051 81.3331 5.83333C81.3331 2.61567 78.7174 0 75.4998 0H54.4998C51.2821 0 48.6664 2.61567 48.6664 5.83333C48.6664 9.051 51.2821 11.6667 54.4998 11.6667H57.9998V14.399C54.8288 14.7513 51.7301 15.3393 48.7178 16.1467C48.7084 16.149 48.7014 16.1467 48.6944 16.149C48.6851 16.1513 48.6781 16.1583 48.6688 16.1607C43.3534 17.5887 38.3181 19.7027 33.6514 22.3907C33.6024 22.414 33.5488 22.414 33.4998 22.442C33.4531 22.47 33.4274 22.5143 33.3831 22.5447C29.3371 24.9037 25.5734 27.6943 22.1621 30.8653L17.1524 25.8533L20.4518 22.554L10.5514 12.6537L0.653442 22.554L10.5514 32.452L13.8531 29.1527L18.8628 34.1623C15.6941 37.5737 12.9011 41.335 10.5444 45.3833C10.5141 45.4277 10.4674 45.4533 10.4418 45.5C10.4138 45.549 10.4161 45.6003 10.3904 45.6493C7.70011 50.316 5.58844 55.3513 4.16044 60.669C4.15811 60.6783 4.15111 60.6853 4.14878 60.6947C4.14644 60.7017 4.14878 60.711 4.14644 60.718C2.75344 65.9167 1.99978 71.3697 1.99978 77C1.99978 82.6303 2.75344 88.0833 4.14411 93.282C4.14644 93.2913 4.14411 93.2983 4.14644 93.3053C4.14878 93.317 4.15811 93.3263 4.16044 93.338C5.58844 98.6533 7.70011 103.686 10.3881 108.351C10.4114 108.4 10.4114 108.451 10.4394 108.5C10.4791 108.568 10.5351 108.619 10.5794 108.682C13.2978 113.332 16.5831 117.612 20.3584 121.408C20.3958 121.452 20.4098 121.506 20.4518 121.548C20.4938 121.59 20.5474 121.604 20.5918 121.641C24.4044 125.435 28.7071 128.732 33.3831 131.458C33.4274 131.488 33.4531 131.532 33.4998 131.56C33.5698 131.6 33.6468 131.619 33.7191 131.651C38.3648 134.321 43.3791 136.421 48.6688 137.842C48.6781 137.844 48.6851 137.851 48.6944 137.853C48.7061 137.856 48.7178 137.856 48.7294 137.858C53.9234 139.249 59.3741 140 64.9998 140C70.6254 140 76.0761 139.249 81.2701 137.858C81.2818 137.856 81.2934 137.858 81.3051 137.853C81.3144 137.851 81.3214 137.844 81.3308 137.842C86.6204 136.421 91.6324 134.321 96.2804 131.651C96.3528 131.619 96.4298 131.602 96.4998 131.56C96.5464 131.532 96.5721 131.488 96.6164 131.458C101.292 128.732 105.593 125.435 109.408 121.641C109.452 121.604 109.506 121.59 109.548 121.548C109.59 121.506 109.604 121.45 109.641 121.408C113.416 117.612 116.702 113.332 119.42 108.682C119.464 108.619 119.52 108.57 119.56 108.5C119.588 108.451 119.586 108.4 119.611 108.351C122.299 103.686 124.411 98.6533 125.839 93.338C125.841 93.3263 125.851 93.317 125.853 93.3053C125.855 93.2983 125.853 93.289 125.855 93.282C127.246 88.0833 128 82.6303 128 77C128 71.3697 127.246 65.9167 125.855 60.718ZM119.448 19.2523L122.747 22.554L119.448 25.8533L116.146 22.554L119.448 19.2523ZM7.25211 22.554L10.5514 19.2523L13.8531 22.554L10.5514 25.8533L7.25211 22.554ZM116.233 93.1443L120.701 94.3413C119.639 97.7433 118.263 101.008 116.625 104.113L112.642 101.813C111.526 101.166 110.098 101.547 109.454 102.667C108.81 103.784 109.193 105.21 110.308 105.854L114.282 108.148C112.385 111.139 110.231 113.948 107.837 116.538L104.596 113.297C103.684 112.385 102.209 112.385 101.297 113.297C100.385 114.21 100.385 115.684 101.297 116.597L104.538 119.838C101.948 122.232 99.1388 124.385 96.1474 126.282L93.8538 122.309C93.2074 121.189 91.7771 120.806 90.6664 121.455C89.5488 122.099 89.1661 123.527 89.8124 124.642L92.1131 128.625C89.0074 130.263 85.7454 131.64 82.3411 132.701L81.1441 128.235C80.8104 126.989 79.5318 126.247 78.2858 126.586C77.0421 126.919 76.3024 128.198 76.6361 129.444L77.8284 133.896C74.4311 134.661 70.9241 135.133 67.3331 135.275V130.667C67.3331 129.376 66.2901 128.333 64.9998 128.333C63.7094 128.333 62.6664 129.376 62.6664 130.667V135.275C59.0754 135.133 55.5684 134.661 52.1711 133.896L53.3634 129.444C53.6971 128.2 52.9574 126.919 51.7138 126.586C50.4701 126.25 49.1891 126.989 48.8554 128.235L47.6584 132.701C44.2564 131.64 40.9921 130.263 37.8864 128.625L40.1871 124.642C40.8311 123.524 40.4484 122.099 39.3331 121.455C38.2178 120.808 36.7898 121.189 36.1458 122.309L33.8521 126.282C30.8608 124.385 28.0514 122.232 25.4614 119.838L28.7024 116.597C29.6148 115.684 29.6148 114.21 28.7024 113.297C27.7901 112.385 26.3154 112.385 25.4031 113.297L22.1621 116.538C19.7681 113.948 17.6144 111.139 15.7174 108.148L19.6911 105.854C20.8088 105.21 21.1914 103.782 20.5451 102.667C19.8988 101.547 18.4684 101.164 17.3578 101.813L13.3748 104.113C11.7368 101.008 10.3601 97.7457 9.29844 94.3413L13.7668 93.1443C15.0104 92.8107 15.7501 91.532 15.4164 90.286C15.0851 89.04 13.8064 88.298 12.5581 88.6363L8.10378 89.8287C7.34078 86.4313 6.86711 82.9243 6.72478 79.3333H11.3331C12.6234 79.3333 13.6664 78.2903 13.6664 77C13.6664 75.7097 12.6234 74.6667 11.3331 74.6667H6.72478C6.86711 71.0757 7.33844 67.5687 8.10378 64.1713L12.5581 65.366C12.7611 65.4197 12.9641 65.4453 13.1648 65.4453C14.1938 65.4453 15.1364 64.7593 15.4164 63.7163C15.7524 62.4727 15.0104 61.1917 13.7668 60.858L9.29844 59.6587C10.3601 56.2567 11.7368 52.9923 13.3748 49.8867L17.3578 52.1873C17.7218 52.3997 18.1231 52.5 18.5198 52.5C19.3271 52.5 20.1111 52.0823 20.5428 51.3333C21.1868 50.2157 20.8041 48.79 19.6888 48.146L15.7151 45.8523C17.6121 42.861 19.7658 40.0517 22.1598 37.4617L25.4008 40.7027C25.8558 41.1577 26.4531 41.3863 27.0504 41.3863C27.6478 41.3863 28.2451 41.1577 28.7001 40.7027C29.6124 39.7903 29.6124 38.3157 28.7001 37.4033L25.4591 34.1623C28.0491 31.7707 30.8584 29.6147 33.8498 27.7177L36.1434 31.6937C36.5774 32.4403 37.3591 32.8603 38.1664 32.8603C38.5631 32.8603 38.9644 32.76 39.3308 32.5477C40.4484 31.9037 40.8311 30.4757 40.1848 29.3603L37.8841 25.375C40.9898 23.737 44.2518 22.3603 47.6561 21.2987L48.8531 25.767C49.1308 26.8077 50.0734 27.496 51.1048 27.496C51.3054 27.496 51.5084 27.4703 51.7114 27.4167C52.9551 27.083 53.6948 25.8043 53.3611 24.5583L52.1688 20.104C54.9034 19.488 57.7058 19.0657 60.5688 18.851C61.2921 18.7973 61.9454 18.7577 62.5778 18.7273C62.6081 18.7273 62.6361 18.7273 62.6664 18.725V23.3333C62.6664 24.6237 63.7094 25.6667 64.9998 25.6667C66.2901 25.6667 67.3331 24.6237 67.3331 23.3333V18.725C67.3634 18.725 67.3914 18.725 67.4218 18.7273C68.0541 18.7577 68.7051 18.7973 69.4308 18.851C72.2938 19.068 75.0984 19.488 77.8308 20.104L76.6384 24.5583C76.3048 25.802 77.0444 27.083 78.2881 27.4167C78.4911 27.4703 78.6941 27.496 78.8948 27.496C79.9238 27.496 80.8688 26.8077 81.1464 25.767L82.3434 21.2987C85.7454 22.3603 89.0098 23.737 92.1154 25.375L89.8148 29.3603C89.1708 30.478 89.5534 31.9037 90.6688 32.5477C91.0351 32.76 91.4364 32.8603 91.8331 32.8603C92.6404 32.8603 93.4244 32.4403 93.8561 31.6937L96.1498 27.7177C99.1411 29.6147 101.95 31.7707 104.54 34.1623L101.299 37.4033C100.387 38.3157 100.387 39.7903 101.299 40.7027C101.754 41.1577 102.352 41.3863 102.949 41.3863C103.546 41.3863 104.144 41.1577 104.599 40.7027L107.84 37.4617C110.234 40.0517 112.387 42.861 114.284 45.8523L110.311 48.146C109.193 48.79 108.81 50.2157 109.457 51.3333C109.891 52.0823 110.672 52.5 111.48 52.5C111.876 52.5 112.278 52.3997 112.644 52.1873L116.627 49.8867C118.265 52.9923 119.642 56.2543 120.703 59.6587L116.235 60.858C114.991 61.1917 114.249 62.4703 114.585 63.7163C114.865 64.7593 115.806 65.4453 116.837 65.4453C117.038 65.4453 117.241 65.4197 117.444 65.366L121.898 64.1713C122.663 67.5687 123.135 71.0757 123.277 74.6667H118.666C117.376 74.6667 116.333 75.7097 116.333 77C116.333 78.2903 117.376 79.3333 118.666 79.3333H123.275C123.132 82.9243 122.661 86.4313 121.896 89.831L117.441 88.6387C116.202 88.3027 114.917 89.0447 114.583 90.2883C114.249 91.532 114.989 92.8107 116.233 93.1443ZM62.6664 14.0513V7H54.4998C53.8581 7 53.3331 6.475 53.3331 5.83333C53.3331 5.19167 53.8581 4.66667 54.4998 4.66667H75.4998C76.1414 4.66667 76.6664 5.19167 76.6664 5.83333C76.6664 6.475 76.1414 7 75.4998 7H67.3331V14.0513C66.5164 14.0163 65.7488 14 64.9998 14C64.2508 14 63.4831 14.0163 62.6664 14.0513Z" fill="#0AA06E"/>
</svg>
