<svg width="100" height="100" viewBox="0 0 100 100" fill="none" xmlns="http://www.w3.org/2000/svg">
<g clip-path="url(#clip0)">
<path d="M50 100C77.6142 100 100 77.6142 100 50C100 22.3858 77.6142 0 50 0C22.3858 0 0 22.3858 0 50C0 77.6142 22.3858 100 50 100Z" fill="#32BA7C"/>
<path d="M37.2241 72.555L62.9339 98.2648C84.2273 92.5866 100 73.1859 100 49.9998C100 49.5266 100 49.0534 100 48.5802L79.8109 29.9683L37.2241 72.555Z" fill="#0AA06E"/>
<path d="M51.2616 61.1989C53.4698 63.4071 53.4698 67.1926 51.2616 69.4008L46.6875 73.975C44.4793 76.1832 40.6938 76.1832 38.4856 73.975L18.454 53.7857C16.2458 51.5775 16.2458 47.792 18.454 45.5838L23.0281 41.0097C25.2363 38.8015 29.0218 38.8015 31.23 41.0097L51.2616 61.1989Z" fill="white"/>
<path d="M68.7693 26.3407C70.9775 24.1325 74.763 24.1325 76.9712 26.3407L81.5453 30.9149C83.7535 33.1231 83.7535 36.9085 81.5453 39.1167L46.845 73.6593C44.6368 75.8675 40.8513 75.8675 38.6431 73.6593L34.069 69.0852C31.8608 66.877 31.8608 63.0915 34.069 60.8833L68.7693 26.3407Z" fill="white"/>
</g>
<defs>
<clipPath id="clip0">
<rect width="100" height="100" fill="white"/>
</clipPath>
</defs>
</svg>
