<svg width="20" height="20" viewBox="0 0 20 20" fill="none" xmlns="http://www.w3.org/2000/svg">
    <path fill-rule="evenodd" clip-rule="evenodd" d="M11.3132 8.25799L18.8798 15.8247C19.2132 16.158 19.2132 16.683 18.8798 16.9997L16.9632 18.9163C16.6382 19.2413 16.1132 19.2413 15.7882 18.9163L8.19651 11.3247C6.26318 12.0497 4.00484 11.6413 2.45484 10.0913C0.538176 8.18299 0.363176 5.19133 1.91318 3.07466L5.10484 6.26633L6.28818 5.09133L3.08818 1.88299C5.21318 0.332994 8.19651 0.507994 10.1132 2.42466C11.6882 4.00799 12.0882 6.30799 11.3132 8.25799ZM8.49651 9.27466L16.3798 17.158L17.1132 16.4163L9.23817 8.54133C9.62151 8.04966 9.87151 7.49966 9.97151 6.908C10.1798 5.74966 9.83817 4.508 8.93817 3.608C8.14651 2.82466 7.10484 2.45799 6.07151 2.51633L8.64651 5.09133L5.11317 8.62466L2.53817 6.04966C2.47984 7.08299 2.84651 8.133 3.63817 8.91633C4.50484 9.783 5.69651 10.1247 6.82984 9.958C7.42151 9.87466 7.98817 9.64966 8.49651 9.27466Z" fill="#FF4769"/>
</svg>
