<svg width="28" height="28" viewBox="0 0 28 28" fill="none" xmlns="http://www.w3.org/2000/svg">
<path d="M22.4 6.53345C21.8046 6.53345 21.2478 6.69631 20.7667 6.97538C20.2856 6.69631 19.7288 6.53345 19.1334 6.53345C17.3325 6.53345 15.8667 7.99878 15.8667 9.80011C15.8667 11.6014 17.3325 13.0668 19.1334 13.0668C19.7288 13.0668 20.2856 12.9039 20.7667 12.6248C21.2478 12.9039 21.8046 13.0668 22.4 13.0668C24.2009 13.0668 25.6667 11.6014 25.6667 9.80011C25.6667 7.99878 24.2009 6.53345 22.4 6.53345ZM21.4667 9.80011C21.4667 10.4506 21.1979 11.0386 20.7667 11.4624C20.3355 11.0386 20.0667 10.4506 20.0667 9.80011C20.0667 9.14958 20.3355 8.56158 20.7667 8.13785C21.1979 8.56158 21.4667 9.14958 21.4667 9.80011ZM16.8 9.80011C16.8 8.51351 17.8468 7.46678 19.1334 7.46678C19.4278 7.46678 19.7074 7.52745 19.9673 7.62778C19.4507 8.20551 19.1334 8.96571 19.1334 9.80011C19.1334 10.6345 19.4507 11.3947 19.9673 11.9724C19.7074 12.0728 19.4278 12.1334 19.1334 12.1334C17.8468 12.1334 16.8 11.0867 16.8 9.80011ZM22.4 12.1334C22.1056 12.1334 21.826 12.0728 21.5661 11.9724C22.0827 11.3947 22.4 10.6345 22.4 9.80011C22.4 8.96571 22.0827 8.20551 21.5661 7.62778C21.826 7.52745 22.1056 7.46678 22.4 7.46678C23.6866 7.46678 24.7334 8.51351 24.7334 9.80011C24.7334 11.0867 23.6866 12.1334 22.4 12.1334Z" fill="#EBEBEB"/>
<path d="M26.0321 3.7334H1.96793C0.882933 3.7334 0 4.61633 0 5.70133V22.2988C0 23.3838 0.882933 24.2667 1.96793 24.2667H26.0321C27.1171 24.2667 28 23.3838 28 22.2988V5.70133C28 4.61633 27.1171 3.7334 26.0321 3.7334ZM27.0667 22.2988C27.0667 22.8691 26.6028 23.3334 26.0321 23.3334H1.96793C1.3972 23.3334 0.933333 22.8691 0.933333 22.2988V5.70133C0.933333 5.13107 1.3972 4.66673 1.96793 4.66673H26.0321C26.6028 4.66673 27.0667 5.13107 27.0667 5.70133V22.2988Z" fill="#EBEBEB"/>
<path d="M2.80016 8.40013H7.00016C7.25823 8.40013 7.46683 8.19106 7.46683 7.93346C7.46683 7.67586 7.25823 7.4668 7.00016 7.4668H2.80016C2.5421 7.4668 2.3335 7.67586 2.3335 7.93346C2.3335 8.19106 2.5421 8.40013 2.80016 8.40013Z" fill="#EBEBEB"/>
<path d="M13.0666 7.4668H8.86657C8.6085 7.4668 8.3999 7.67586 8.3999 7.93346C8.3999 8.19106 8.6085 8.40013 8.86657 8.40013H13.0666C13.3246 8.40013 13.5332 8.19106 13.5332 7.93346C13.5332 7.67586 13.3246 7.4668 13.0666 7.4668Z" fill="#EBEBEB"/>
<path d="M2.80016 10.7334H3.26683C3.5249 10.7334 3.7335 10.5243 3.7335 10.2667C3.7335 10.0091 3.5249 9.80005 3.26683 9.80005H2.80016C2.5421 9.80005 2.3335 10.0091 2.3335 10.2667C2.3335 10.5243 2.5421 10.7334 2.80016 10.7334Z" fill="#EBEBEB"/>
<path d="M5.13317 9.80005C4.8751 9.80005 4.6665 10.0091 4.6665 10.2667C4.6665 10.5243 4.8751 10.7334 5.13317 10.7334H6.0665C6.32457 10.7334 6.53317 10.5243 6.53317 10.2667C6.53317 10.0091 6.32457 9.80005 6.0665 9.80005H5.13317Z" fill="#EBEBEB"/>
<path d="M8.8668 10.2667C8.8668 10.0091 8.6582 9.80005 8.40013 9.80005H7.93346C7.6754 9.80005 7.4668 10.0091 7.4668 10.2667C7.4668 10.5243 7.6754 10.7334 7.93346 10.7334H8.40013C8.6582 10.7334 8.8668 10.5243 8.8668 10.2667Z" fill="#EBEBEB"/>
<path d="M11.1998 10.7334C11.4579 10.7334 11.6665 10.5243 11.6665 10.2667C11.6665 10.0091 11.4579 9.80005 11.1998 9.80005H10.2665C10.0084 9.80005 9.7998 10.0091 9.7998 10.2667C9.7998 10.5243 10.0084 10.7334 10.2665 10.7334H11.1998Z" fill="#EBEBEB"/>
<path d="M12.7401 9.93532C12.651 10.024 12.6001 10.1407 12.6001 10.2667C12.6001 10.3927 12.651 10.5093 12.7354 10.598C12.8236 10.682 12.9454 10.7333 13.0668 10.7333C13.1881 10.7333 13.3094 10.682 13.3981 10.598C13.4821 10.5093 13.5334 10.388 13.5334 10.2667C13.5334 10.1453 13.4821 10.024 13.3981 9.93999C13.2254 9.76265 12.9081 9.76265 12.7401 9.93532Z" fill="#EBEBEB"/>
<path d="M2.3335 21.0002H7.46683V17.2668H2.3335V21.0002ZM3.26683 18.2002H6.5335V20.0668H3.26683V18.2002Z" fill="#EBEBEB"/>
<path d="M8.3999 21.0002H13.5332V17.2668H8.3999V21.0002ZM9.33324 18.2002H12.5999V20.0668H9.33324V18.2002Z" fill="#EBEBEB"/>
<path d="M14.4668 21.0002H19.6001V17.2668H14.4668V21.0002ZM15.4001 18.2002H18.6668V20.0668H15.4001V18.2002Z" fill="#EBEBEB"/>
<path d="M20.5332 21.0002H25.6665V17.2668H20.5332V21.0002ZM21.4665 18.2002H24.7332V20.0668H21.4665V18.2002Z" fill="#EBEBEB"/>
</svg>
