<svg width="32" height="32" viewBox="0 0 32 32" fill="none" xmlns="http://www.w3.org/2000/svg">
    <path d="M3.96642 8.86528C3.96642 9.09111 4.08696 9.29987 4.28251 9.41275C4.38036 9.46922 4.48945 9.49746 4.5986 9.49746C4.70776 9.49746 4.81684 9.46922 4.91469 9.41275L9.08538 7.00478C9.28093 6.89183 9.40147 6.68314 9.40147 6.45731C9.40147 6.23148 9.28093 6.02272 9.08538 5.90985L4.91469 3.50195C4.71907 3.389 4.47814 3.389 4.28251 3.50195C4.08696 3.6149 3.96642 3.82359 3.96642 4.04941V4.66621H0.632178C0.283005 4.66621 0 4.94929 0 5.29839V7.61631C0 7.96541 0.283005 8.24848 0.632178 8.24848H3.96642V8.86528ZM1.26436 6.98413V5.93057H4.5986C4.94777 5.93057 5.23078 5.64749 5.23078 5.29839V5.14435L7.50493 6.45731L5.23078 7.77028V7.61624C5.23078 7.26713 4.94777 6.98406 4.5986 6.98406H1.26436V6.98413Z" fill="#948DA5"/>
    <path d="M31.3679 23.7514H28.0337V23.1346C28.0337 22.9087 27.9131 22.7 27.7176 22.5871C27.522 22.4742 27.281 22.4742 27.0854 22.5871L22.9147 24.9951C22.7192 25.108 22.5986 25.3167 22.5986 25.5425C22.5986 25.7684 22.7192 25.9771 22.9147 26.09L27.0854 28.4979C27.1833 28.5544 27.2923 28.5826 27.4015 28.5826C27.5107 28.5826 27.6197 28.5544 27.7176 28.4979C27.9131 28.3849 28.0337 28.1762 28.0337 27.9504V27.3336H31.3679C31.7171 27.3336 32.0001 27.0506 32.0001 26.7015V24.3835C32.0001 24.0344 31.7171 23.7514 31.3679 23.7514ZM30.7357 26.0693H27.4015C27.0523 26.0693 26.7693 26.3523 26.7693 26.7015V26.8555L24.4952 25.5425L26.7693 24.2296V24.3836C26.7693 24.7328 27.0523 25.0158 27.4015 25.0158H30.7357V26.0693Z" fill="#948DA5"/>
    <path d="M23.2696 20.6886C23.6188 20.6886 23.9018 20.4056 23.9018 20.0564V17.6857H28.4324C28.7816 17.6857 29.0646 17.4027 29.0646 17.0536V14.9463C29.0646 14.5971 28.7816 14.3141 28.4324 14.3141H23.9018V11.9435C23.9018 11.5943 23.6188 11.3113 23.2696 11.3113H21.9002V3.94718C21.9002 1.99508 20.3121 0.406982 18.36 0.406982H13.6404C11.6883 0.406982 10.1002 1.99508 10.1002 3.94718V11.3113H8.7303C8.38112 11.3113 8.09812 11.5943 8.09812 11.9435V14.3141H3.56821C3.21904 14.3141 2.93604 14.5971 2.93604 14.9463V17.0536C2.93604 17.4027 3.21904 17.6857 3.56821 17.6857H8.09805V20.0564C8.09805 20.4056 8.38105 20.6886 8.73022 20.6886H10.1002V28.0527C10.1002 30.0048 11.6883 31.5929 13.6403 31.5929H18.36C20.3121 31.5929 21.9002 30.0048 21.9002 28.0527V20.6886H23.2696ZM27.8002 15.5785V16.4214H23.9018V15.5785H27.8002ZM4.20039 16.4214V15.5785H8.09805V16.4214H4.20039ZM9.3624 19.4242V12.5756H10.1002V19.4242H9.3624ZM13.9664 28.5561C13.9677 28.554 13.9689 28.5518 13.9701 28.5496C14.5503 27.5196 14.5503 26.2398 13.9701 25.2097C13.9695 25.2088 13.9689 25.2078 13.9684 25.2068C13.6053 24.5605 13.6052 23.7584 13.9683 23.1121C13.9689 23.1112 13.9694 23.1102 13.9699 23.1092C14.5503 22.079 14.5503 20.7992 13.9699 19.7691C13.9692 19.7679 13.9685 19.7667 13.9678 19.7654C13.6059 19.1203 13.6054 18.3202 13.9666 17.6747C13.9677 17.6728 13.9688 17.6708 13.9699 17.669C14.5503 16.6387 14.5503 15.3588 13.9697 14.3285C13.6049 13.6812 13.6049 12.8768 13.9697 12.2294C14.5496 11.2004 14.5503 9.92217 13.9718 8.8925C13.971 8.89116 13.9703 8.88983 13.9695 8.88856C13.6049 8.24121 13.6049 7.43694 13.9699 6.7891C14.5493 5.76069 14.5502 4.48327 13.9727 3.45408C13.9717 3.45225 13.9707 3.45043 13.9696 3.4486C13.6632 2.90479 13.6153 2.25062 13.8236 1.67141H15.0935C14.9189 2.47729 15.0364 3.33635 15.4494 4.06926C15.4503 4.07095 15.4513 4.0727 15.4523 4.07439C15.8143 4.72089 15.8134 5.52278 15.4493 6.16907C14.8696 7.19798 14.8689 8.47617 15.4473 9.50571C15.4481 9.50711 15.4488 9.50845 15.4496 9.50978C15.8143 10.1571 15.8143 10.9614 15.4495 11.6088C14.869 12.6391 14.869 13.9191 15.4495 14.9494C15.8143 15.5968 15.8143 16.4011 15.4496 17.0484C15.4489 17.0496 15.4482 17.0508 15.4476 17.0519C14.8699 18.0797 14.8695 19.3553 15.4461 20.3834C15.4473 20.3856 15.4484 20.3877 15.4497 20.3898C15.814 21.0364 15.8143 21.8396 15.451 22.4866C15.4504 22.4876 15.4499 22.4885 15.4494 22.4895C14.869 23.5197 14.869 24.7995 15.4494 25.8296C15.4499 25.8306 15.4506 25.8316 15.4511 25.8327C15.8145 26.4795 15.8141 27.2826 15.4498 27.9291C15.4487 27.931 15.4476 27.9331 15.4464 27.9352C15.0356 28.6672 14.919 29.5244 15.0935 30.3286H13.8237C13.6151 29.7494 13.6625 29.0957 13.9664 28.5561ZM16.5506 28.551C16.5517 28.5491 16.5528 28.547 16.554 28.545C17.1317 27.5157 17.1307 26.2382 16.5512 25.2097C16.5508 25.2088 16.5501 25.2077 16.5496 25.2067C16.1866 24.5607 16.1866 23.7588 16.5493 23.1126C16.5501 23.1115 16.5507 23.1104 16.5513 23.1092C17.1305 22.0811 17.1315 20.8041 16.5545 19.7752C16.5533 19.7729 16.5521 19.7707 16.5508 19.7685C16.1861 19.1211 16.1861 18.3169 16.5508 17.6696C16.5515 17.6685 16.5522 17.6673 16.5527 17.6661C17.1316 16.6365 17.1309 15.358 16.551 14.3287C16.1863 13.6812 16.1863 12.8769 16.551 12.2295C17.131 11.2004 17.1316 9.92196 16.5529 8.89236C16.5522 8.89109 16.5515 8.8899 16.5508 8.88863C16.1862 8.24128 16.1862 7.43701 16.5511 6.78917C17.1316 5.759 17.1316 4.47905 16.5511 3.44888C16.5501 3.44713 16.5492 3.44544 16.5482 3.44368C16.2442 2.90085 16.1972 2.24887 16.4049 1.67134H17.6748C17.5006 2.47533 17.6172 3.33221 18.0278 4.06399C18.0289 4.06582 18.0298 4.06764 18.0309 4.06947C18.3945 4.71485 18.3956 5.51624 18.0343 6.16261C18.033 6.16472 18.0318 6.16683 18.0306 6.169C17.4509 7.19791 17.4503 8.4761 18.0286 9.50564C18.0294 9.50704 18.0301 9.50838 18.0309 9.50971C18.3956 10.1571 18.3956 10.9614 18.0308 11.6088C17.4503 12.639 17.4503 13.919 18.0308 14.9494C18.3956 15.5967 18.3956 16.401 18.0309 17.0484C18.0302 17.0496 18.0294 17.0509 18.0288 17.0522C17.4503 18.0818 17.4508 19.36 18.0306 20.389C18.0313 20.3903 18.032 20.3915 18.0327 20.3928C18.3952 21.0387 18.3951 21.8402 18.0324 22.4861C18.0317 22.4873 18.0311 22.4883 18.0305 22.4894C17.4502 23.5195 17.4502 24.7994 18.0305 25.8295C18.031 25.8304 18.0317 25.8315 18.0322 25.8325C18.3957 26.4794 18.3953 27.2826 18.034 27.924C18.0327 27.9262 18.0315 27.9284 18.0303 27.9305C17.6174 28.6635 17.4999 29.5226 17.6747 30.3286H16.4049C16.1964 29.7492 16.2442 29.0949 16.5506 28.551ZM11.3645 28.0527V3.94718C11.3645 3.12563 11.8022 2.40445 12.4565 2.00429C12.3753 2.70776 12.5109 3.43252 12.8652 4.06399C12.8662 4.06582 12.8672 4.06764 12.8682 4.06947C13.2329 4.71682 13.2329 5.52109 12.868 6.16893C12.2883 7.19784 12.2876 8.4761 12.866 9.50564C12.8668 9.50704 12.8675 9.50838 12.8682 9.50971C13.2329 10.1571 13.2329 10.9614 12.8682 11.6088C12.2876 12.639 12.2876 13.9191 12.8682 14.9493C13.232 15.5948 13.233 16.3964 12.8715 17.0427C12.8702 17.0448 12.8691 17.0468 12.868 17.0489C12.2876 18.079 12.2876 19.3588 12.868 20.389C12.8687 20.3903 12.8694 20.3915 12.8701 20.3928C13.2325 21.0387 13.2325 21.8402 12.8697 22.4861C12.8691 22.4872 12.8684 22.4883 12.8678 22.4894C12.2876 23.5196 12.2876 24.7994 12.868 25.8295C12.8685 25.8304 12.869 25.8314 12.8695 25.8323C13.2331 26.4793 13.2327 27.2826 12.8713 27.9239C12.8701 27.9261 12.8689 27.9283 12.8676 27.9304C12.5112 28.5631 12.3747 29.29 12.4562 29.9954C11.8021 29.5953 11.3645 28.8742 11.3645 28.0527ZM20.6359 28.0527C20.6359 29.1005 19.9239 29.9846 18.9586 30.2481C18.7822 29.6895 18.8391 29.0708 19.129 28.5561C19.1302 28.5539 19.1314 28.5518 19.1327 28.5496C19.7129 27.5195 19.7128 26.2397 19.1325 25.2097C19.132 25.2088 19.1314 25.2077 19.1308 25.2068C18.7679 24.5606 18.7678 23.7587 19.1307 23.1126C19.1313 23.1114 19.1319 23.1103 19.1325 23.1093C19.7129 22.0791 19.7129 20.7993 19.1325 19.7692C19.1318 19.768 19.1311 19.7667 19.1304 19.7655C18.7674 19.1187 18.768 18.3159 19.1321 17.6696C19.1328 17.6683 19.1336 17.6671 19.1342 17.6658C19.7128 16.6362 19.7122 15.3578 19.1323 14.3287C18.7675 13.6813 18.7675 12.877 19.1323 12.2296C19.7122 11.2005 19.7129 9.92231 19.1343 8.89264C19.1336 8.8913 19.1328 8.88997 19.1321 8.8887C18.7685 8.24339 18.7674 7.44207 19.1287 6.79577C19.13 6.7936 19.1312 6.79142 19.1324 6.78924C19.7119 5.76083 19.7128 4.48341 19.1353 3.45422C19.1343 3.45239 19.1333 3.45057 19.1322 3.44874C18.84 2.93 18.7826 2.31075 18.9586 1.75198C19.9239 2.01552 20.6359 2.89966 20.6359 3.94739V28.0527ZM22.6374 12.5756V19.4242H21.9002V12.5756H22.6374Z" fill="#948DA5"/>
</svg>
