<svg width="28" height="28" viewBox="0 0 28 28" fill="none" xmlns="http://www.w3.org/2000/svg">
<path d="M8.86657 14.4667H12.1995C12.4081 15.2693 13.1328 15.8667 13.9999 15.8667C15.0294 15.8667 15.8666 15.0295 15.8666 14C15.8666 13.1325 15.2692 12.4082 14.4666 12.1996V7.46667C14.4666 7.2086 14.2575 7 13.9999 7C13.7423 7 13.5332 7.2086 13.5332 7.46667V12.1996C12.8804 12.3695 12.3694 12.8805 12.1995 13.5333H8.86657C8.60897 13.5333 8.3999 13.7419 8.3999 14C8.3999 14.2581 8.60897 14.4667 8.86657 14.4667ZM13.9999 13.0667C14.5146 13.0667 14.9332 13.4853 14.9332 14C14.9332 14.5147 14.5146 14.9333 13.9999 14.9333C13.4852 14.9333 13.0666 14.5147 13.0666 14C13.0666 13.4853 13.4852 13.0667 13.9999 13.0667Z" fill="#EBEBEB"/>
<path d="M13.9999 4.6666C14.2575 4.6666 14.4665 4.458 14.4665 4.19994V3.73327C14.4665 3.4752 14.2575 3.2666 13.9999 3.2666C13.7423 3.2666 13.5332 3.4752 13.5332 3.73327V4.19994C13.5332 4.458 13.7423 4.6666 13.9999 4.6666Z" fill="#EBEBEB"/>
<path d="M13.9999 23.3333C13.7423 23.3333 13.5332 23.5419 13.5332 23.7999V24.2666C13.5332 24.5247 13.7423 24.7333 13.9999 24.7333C14.2575 24.7333 14.4665 24.5247 14.4665 24.2666V23.7999C14.4665 23.5419 14.2575 23.3333 13.9999 23.3333Z" fill="#EBEBEB"/>
<path d="M23.8002 13.5334C23.5426 13.5334 23.3335 13.742 23.3335 14.0001C23.3335 14.2582 23.5426 14.4668 23.8002 14.4668H24.2668C24.5244 14.4668 24.7335 14.2582 24.7335 14.0001C24.7335 13.742 24.5244 13.5334 24.2668 13.5334H23.8002Z" fill="#EBEBEB"/>
<path d="M3.73327 14.4668H4.19994C4.45754 14.4668 4.6666 14.2582 4.6666 14.0001C4.6666 13.742 4.45754 13.5334 4.19994 13.5334H3.73327C3.47567 13.5334 3.2666 13.742 3.2666 14.0001C3.2666 14.2582 3.47567 14.4668 3.73327 14.4668Z" fill="#EBEBEB"/>
<path d="M23.4702 4.99654C23.5897 4.99654 23.7091 4.9508 23.8001 4.8598L24.1301 4.52987C24.3125 4.3474 24.3125 4.05247 24.1301 3.87C23.9476 3.68754 23.6527 3.68754 23.4702 3.87L23.1403 4.19994C22.9578 4.3824 22.9578 4.67734 23.1403 4.8598C23.2313 4.9508 23.3507 4.99654 23.4702 4.99654Z" fill="#EBEBEB"/>
<path d="M4.26805 23.0715L3.93812 23.4014C3.75565 23.5839 3.75565 23.8788 3.93812 24.0613C4.02912 24.1523 4.14859 24.198 4.26805 24.198C4.38752 24.198 4.50699 24.1523 4.59799 24.0613L4.92792 23.7314C5.11039 23.5489 5.11039 23.254 4.92792 23.0715C4.74545 22.889 4.45052 22.8895 4.26805 23.0715Z" fill="#EBEBEB"/>
<path d="M23.4014 24.0617C23.4924 24.1527 23.6118 24.1984 23.7313 24.1984C23.8508 24.1984 23.9702 24.1527 24.0612 24.0617C24.2437 23.8792 24.2437 23.5843 24.0612 23.4018L23.7313 23.0719C23.5488 22.8894 23.2539 22.8894 23.0714 23.0719C22.889 23.2544 22.889 23.5493 23.0714 23.7318L23.4014 24.0617Z" fill="#EBEBEB"/>
<path d="M4.1035 4.76337C4.1945 4.85437 4.31397 4.9001 4.43344 4.9001C4.5529 4.9001 4.67237 4.85437 4.76337 4.76337C4.94584 4.5809 4.94584 4.28597 4.76337 4.1035L4.43344 3.77357C4.25097 3.5911 3.95604 3.5911 3.77357 3.77357C3.5911 3.95604 3.5911 4.25097 3.77357 4.43344L4.1035 4.76337Z" fill="#EBEBEB"/>
<path d="M0 0V28H28V0H0ZM27.0667 27.0667H0.933333V0.933333H27.0667V27.0667Z" fill="#EBEBEB"/>
</svg>
