<svg width="28" height="28" viewBox="0 0 28 28" fill="none" xmlns="http://www.w3.org/2000/svg">
<path d="M13.9999 17.0868C15.702 17.0868 17.0868 15.702 17.0868 13.9999C17.0868 12.2979 15.702 10.9131 13.9999 10.9131C12.2979 10.9131 10.9131 12.2979 10.9131 13.9999C10.9131 15.702 12.2979 17.0868 13.9999 17.0868ZM13.9999 12.1334C15.0292 12.1334 15.8664 12.9707 15.8664 13.9999C15.8664 15.0292 15.0292 15.8664 13.9999 15.8664C12.9707 15.8664 12.1334 15.0292 12.1334 13.9999C12.1334 12.9707 12.9707 12.1334 13.9999 12.1334Z" fill="#EBEBEB"/>
<path d="M27.3898 13.3898H24.972C24.6654 7.81513 20.1849 3.33457 14.6102 3.02796V0.610168C14.6102 0.273254 14.3369 0 14 0C13.6631 0 13.3898 0.273254 13.3898 0.610168V3.62084C13.3898 3.95775 13.6631 4.23101 14 4.23101C19.3867 4.23101 23.769 8.61334 23.769 14C23.769 19.3867 19.3867 23.769 14 23.769C8.61334 23.769 4.23101 19.3867 4.23101 14C4.23101 10.2594 6.41256 6.79829 9.78872 5.18267C10.0927 5.03714 10.2212 4.67287 10.0757 4.3689C9.93028 4.06504 9.56571 3.9365 9.26194 4.08192C7.41812 4.96423 5.85792 6.34127 4.75016 8.06408C3.72202 9.66313 3.13352 11.493 3.02908 13.3898H0.610168C0.273254 13.3898 0 13.6631 0 14C0 14.3369 0.273254 14.6102 0.610168 14.6102H3.02796C3.33457 20.1849 7.81513 24.6654 13.3898 24.972V27.3898C13.3898 27.7267 13.6631 28 14 28C14.3369 28 14.6102 27.7267 14.6102 27.3898V24.972C20.1849 24.6654 24.6654 20.1849 24.972 14.6102H27.3898C27.7267 14.6102 28 14.3369 28 14C28 13.6631 27.7267 13.3898 27.3898 13.3898Z" fill="#EBEBEB"/>
</svg>
