<svg width="32" height="32" viewBox="0 0 32 32" fill="none" xmlns="http://www.w3.org/2000/svg">
<path d="M19.1273 25.8701C20.6197 25.8701 21.8337 24.656 21.8337 23.1637C21.8337 21.6714 20.6197 20.4573 19.1273 20.4573C17.6349 20.4573 16.4209 21.6714 16.4209 23.1637C16.4209 24.656 17.6349 25.8701 19.1273 25.8701ZM19.1273 21.7664C19.8978 21.7664 20.5246 22.3932 20.5246 23.1637C20.5246 23.9341 19.8978 24.561 19.1273 24.561C18.3568 24.561 17.73 23.9341 17.73 23.1637C17.73 22.3932 18.3568 21.7664 19.1273 21.7664Z" fill="#948DA5"/>
<path d="M31.9999 15.3093C31.9999 14.9477 31.7069 14.6547 31.3453 14.6547H24.6762V12.6847L26.5011 11.2963C26.8598 11.0233 27.3053 10.8729 27.7555 10.8729H31.3453C31.7069 10.8729 31.9999 10.5799 31.9999 10.2184C31.9999 9.85683 31.7069 9.56381 31.3453 9.56381H27.7555C27.0206 9.56381 26.2934 9.80919 25.7083 10.2546L19.8751 14.6925L19.766 14.7118L17.4821 9.27683C16.8426 7.75494 15.6882 6.48897 14.2316 5.71217C13.9123 5.54199 13.516 5.66272 13.346 5.98177C13.1759 6.30075 13.2966 6.69719 13.6155 6.8673C14.8075 7.50294 15.752 8.53872 16.2752 9.78395L18.4445 14.9463L12.1739 16.0589C11.2582 16.2209 10.4429 16.7619 9.93663 17.5438L9.54201 18.1543C9.10412 18.8306 8.87256 19.6143 8.87256 20.4206C8.87256 21.0125 8.99547 21.5874 9.23845 22.1304C9.48136 22.6706 9.82914 23.1444 10.2728 23.5392L10.8049 24.0117C11.5089 24.6374 12.4152 24.9821 13.3569 24.9821H14.9224C15.6275 26.6064 17.2464 27.7457 19.127 27.7457C21.0076 27.7457 22.6266 26.6064 23.3317 24.9821H31.3453C31.7069 24.9821 31.9999 24.689 31.9999 24.3275C31.9999 23.966 31.7069 23.673 31.3453 23.673H23.68C23.6986 23.5057 23.709 23.336 23.709 23.1639C23.709 22.9441 23.6925 22.7282 23.6624 22.5166H31.3453C31.7069 22.5166 31.9999 22.2236 31.9999 21.8621C31.9999 21.5005 31.7069 21.2075 31.3453 21.2075H23.2693C22.534 19.6571 20.954 18.5821 19.1272 18.5821C17.3003 18.5821 15.7203 19.6571 14.9851 21.2075H10.2924C10.2307 20.992 10.1947 20.7709 10.185 20.5457H12.0344C12.8575 20.5457 13.5272 19.876 13.5272 19.053C13.5272 18.2299 12.8575 17.5602 12.0344 17.5602H11.7918C11.9815 17.4586 12.1872 17.386 12.4023 17.348L20.203 15.9638H31.3453C31.7069 15.9638 31.9999 15.6708 31.9999 15.3093ZM19.1272 19.8911C20.9317 19.8911 22.3999 21.3592 22.3999 23.1638C22.3999 24.9684 20.9317 26.4365 19.1272 26.4365C17.3226 26.4365 15.8544 24.9684 15.8544 23.1638C15.8544 21.3592 17.3226 19.8911 19.1272 19.8911ZM14.5743 23.6729H13.357C12.7363 23.6729 12.1388 23.4457 11.6744 23.0329L11.1426 22.5606C11.1264 22.5463 11.1113 22.5312 11.0955 22.5165H14.5919C14.5619 22.7281 14.5454 22.944 14.5454 23.1638C14.5454 23.336 14.5558 23.5056 14.5743 23.6729ZM12.2181 19.0529C12.2181 19.1541 12.1357 19.2365 12.0344 19.2365H10.4384C10.496 19.1101 10.5627 18.9873 10.6389 18.8693H12.0344C12.1357 18.8693 12.2181 18.9517 12.2181 19.0529ZM23.3671 14.6547H22.0867L23.3671 13.6806V14.6547Z" fill="#948DA5"/>
<path d="M29.3816 17.1274C29.0201 17.1274 28.7271 17.4205 28.7271 17.782C28.7271 18.1435 29.0201 18.4365 29.3816 18.4365H31.127C31.4886 18.4365 31.7816 18.1435 31.7816 17.782C31.7816 17.4205 31.4886 17.1274 31.127 17.1274H29.3816Z" fill="#948DA5"/>
<path d="M10.2542 15.1587C10.6678 15.3982 11.1415 15.5274 11.6362 15.5274C13.1601 15.5274 14.3998 14.2876 14.3998 12.7638C14.3998 11.7251 13.8189 10.7982 12.9408 10.3273C13.1041 9.88552 13.1888 9.41606 13.1888 8.9397C13.1888 6.7341 11.3944 4.9397 9.18879 4.9397C6.98319 4.9397 5.18879 6.7341 5.18879 8.9397C5.18879 8.94704 5.18879 8.95432 5.18886 8.96166C3.33861 9.48268 2.00879 11.19 2.00879 13.1615C2.00879 15.5676 3.96632 17.5252 6.37243 17.5252C8.03875 17.5251 9.52072 16.5893 10.2542 15.1587ZM6.3725 16.216C4.68821 16.216 3.31795 14.8457 3.31795 13.1614C3.31795 11.7578 4.28043 10.5456 5.60981 10.2039C5.72806 10.1735 6.24341 10.1069 6.3725 10.1069C7.28726 10.1069 8.14632 10.512 8.72937 11.2182C8.85875 11.375 9.04595 11.4561 9.23446 11.4561C9.38123 11.4561 9.52886 11.407 9.65083 11.3063C9.92959 11.0762 9.96901 10.6636 9.7389 10.3849C8.93381 9.40959 7.75963 8.83817 6.50144 8.80137C6.57366 7.38159 7.75141 6.24879 9.18886 6.24879C10.6726 6.24879 11.8798 7.45592 11.8798 8.9397C11.8798 9.43897 11.7418 9.92653 11.4808 10.3497C11.3678 10.5328 11.3521 10.7596 11.4386 10.9565C11.525 11.1534 11.7028 11.2953 11.914 11.336C12.5958 11.4676 13.0908 12.0681 13.0908 12.7638C13.0908 13.5658 12.4382 14.2183 11.6362 14.2183C11.1849 14.2183 10.7665 14.0134 10.4882 13.6561C10.3343 13.4585 10.0808 13.3661 9.83592 13.418C9.59083 13.47 9.39694 13.6574 9.33657 13.9005C8.99788 15.2638 7.77904 16.216 6.3725 16.216Z" fill="#948DA5"/>
<path d="M4.29091 6.40009C4.29091 5.21704 3.32851 4.25464 2.14545 4.25464C0.962399 4.25464 0 5.21704 0 6.40009C0 7.58315 0.962399 8.54555 2.14545 8.54555C3.32851 8.54555 4.29091 7.58315 4.29091 6.40009ZM1.30909 6.40009C1.30909 5.93893 1.68429 5.56373 2.14545 5.56373C2.60662 5.56373 2.98182 5.93893 2.98182 6.40009C2.98182 6.86126 2.60662 7.23646 2.14545 7.23646C1.68429 7.23646 1.30909 6.86126 1.30909 6.40009Z" fill="#948DA5"/>
</svg>
