<svg width="28" height="28" viewBox="0 0 28 28" fill="none" xmlns="http://www.w3.org/2000/svg">
<path d="M26.4862 18.7862L25.8649 18.1694C25.5087 17.8128 25.0403 17.5902 24.5389 17.5392C24.0375 17.4882 23.5338 17.6119 23.1131 17.8894L22.7718 17.5481C22.6899 17.4666 22.579 17.4209 22.4634 17.4209C22.3478 17.4209 22.2369 17.4666 22.1549 17.5481C22.1139 17.5888 22.0814 17.6372 22.0592 17.6905C22.037 17.7438 22.0255 17.801 22.0255 17.8587C22.0255 17.9165 22.037 17.9737 22.0592 18.027C22.0814 18.0803 22.1139 18.1287 22.1549 18.1694L22.7718 18.7862C22.8538 18.8677 22.9647 18.9135 23.0803 18.9135C23.1958 18.9135 23.3067 18.8677 23.3887 18.7862C23.6398 18.5484 23.9725 18.4158 24.3184 18.4158C24.6643 18.4158 24.997 18.5484 25.2481 18.7862L25.8649 19.4075C26.1112 19.6534 26.2496 19.987 26.2499 20.335C26.2502 20.5302 26.2068 20.723 26.1231 20.8994L24.6268 19.4075C24.546 19.3251 24.436 19.2779 24.3206 19.2762C24.2627 19.2765 24.2054 19.2882 24.1521 19.3107C24.0988 19.3333 24.0505 19.3662 24.0099 19.4075L22.1549 21.2625C22.0735 21.3445 22.0277 21.4554 22.0277 21.5709C22.0277 21.6865 22.0735 21.7974 22.1549 21.8794L23.6468 23.3756C23.4019 23.4919 23.127 23.5296 22.8599 23.4834C22.5928 23.4371 22.3465 23.3093 22.1549 23.1175L21.5337 22.5006C21.4113 22.3787 21.3143 22.2338 21.248 22.0743C21.1818 21.9147 21.1477 21.7437 21.1477 21.5709C21.1477 21.3982 21.1818 21.2271 21.248 21.0676C21.3143 20.9081 21.4113 20.7632 21.5337 20.6412C21.6152 20.5593 21.6609 20.4484 21.6609 20.3328C21.6609 20.2172 21.6152 20.1063 21.5337 20.0244L20.9168 19.4075C20.8763 19.3667 20.8282 19.3343 20.7751 19.3121C20.7221 19.2899 20.6652 19.2784 20.6077 19.2782C20.5503 19.278 20.4933 19.2891 20.4401 19.3109C20.3869 19.3327 20.3386 19.3648 20.2978 19.4053C20.257 19.4458 20.2246 19.494 20.2024 19.547C20.1802 19.6 20.1687 19.6569 20.1685 19.7144C20.1683 19.7719 20.1794 19.8288 20.2012 19.882C20.223 19.9352 20.2551 19.9836 20.2956 20.0244L20.6368 20.3656C20.3593 20.7864 20.2356 21.29 20.2867 21.7914C20.3377 22.2929 20.5603 22.7613 20.9168 23.1175L21.5337 23.7344C21.9439 24.1445 22.5002 24.3748 23.0803 24.3748C23.6603 24.3748 24.2166 24.1445 24.6268 23.7344C24.7093 23.6536 24.7564 23.5435 24.7581 23.4281C24.7578 23.3702 24.7461 23.313 24.7236 23.2597C24.701 23.2063 24.6682 23.158 24.6268 23.1175L23.0824 21.5731L24.3206 20.335L25.8649 21.875C25.9056 21.916 25.954 21.9485 26.0073 21.9708C26.0606 21.993 26.1178 22.0044 26.1756 22.0044C26.2333 22.0044 26.2905 21.993 26.3438 21.9708C26.3971 21.9485 26.4455 21.916 26.4862 21.875C26.8963 21.4648 27.1267 20.9085 27.1267 20.3284C27.1267 19.7484 26.8963 19.1921 26.4862 18.7819V18.7862Z" fill="#EBEBEB"/>
<path d="M22.9732 14.7656C22.9736 14.5263 22.925 14.2894 22.8303 14.0696C22.7356 13.8499 22.5968 13.6518 22.4225 13.4878C22.2483 13.3238 22.0422 13.1973 21.8171 13.1161C21.592 13.0348 21.3526 13.0006 21.1138 13.0156C21.1286 12.7676 21.0905 12.5192 21.0019 12.2871C20.9133 12.055 20.7763 11.8443 20.6 11.6693C20.4236 11.4942 20.2121 11.3587 19.9793 11.2717C19.7465 11.1848 19.4979 11.1484 19.25 11.165C19.2522 11.1271 19.2522 11.0891 19.25 11.0512C19.2505 10.8119 19.2019 10.575 19.1072 10.3553C19.0125 10.1355 18.8737 9.93747 18.6994 9.77346C18.5251 9.60944 18.3191 9.48291 18.094 9.40168C17.8689 9.32046 17.6295 9.28627 17.3906 9.30123C17.3906 9.26623 17.3906 9.22685 17.3906 9.19185C17.3835 8.85296 17.2782 8.52344 17.0873 8.2433C16.8965 7.96316 16.6284 7.74448 16.3156 7.61381C16.0029 7.48315 15.6589 7.44612 15.3255 7.50724C14.9921 7.56836 14.6836 7.72499 14.4375 7.9581L13.8163 8.57935L12.5606 7.31935C12.9985 6.72691 13.2081 5.9965 13.151 5.26205C13.094 4.5276 12.7741 3.83833 12.25 3.3206L10.7056 1.77185C10.4213 1.48744 10.0836 1.26183 9.71206 1.1079C9.34048 0.95398 8.94222 0.874756 8.54002 0.874756C8.13782 0.874756 7.73956 0.95398 7.36798 1.1079C6.9964 1.26183 6.65878 1.48744 6.37439 1.77185C6.29291 1.85382 6.24717 1.96471 6.24717 2.08029C6.24717 2.19587 6.29291 2.30676 6.37439 2.38873L8.85064 4.86498L7.61252 6.12498L5.14064 3.62685C5.09997 3.58585 5.05158 3.5533 4.99827 3.53109C4.94495 3.50888 4.88777 3.49744 4.83002 3.49744C4.77226 3.49744 4.71508 3.50888 4.66176 3.53109C4.60845 3.5533 4.56006 3.58585 4.51939 3.62685C4.23498 3.91124 4.00937 4.24886 3.85544 4.62044C3.70152 4.99202 3.62229 5.39028 3.62229 5.79248C3.62229 6.19468 3.70152 6.59294 3.85544 6.96452C4.00937 7.3361 4.23498 7.67372 4.51939 7.9581L6.06814 9.50685C6.58918 10.027 7.28016 10.342 8.01452 10.3942C8.74889 10.4465 9.47749 10.2324 10.0669 9.79123L10.3556 10.0844C10.4376 10.1658 10.5485 10.2116 10.6641 10.2116C10.7797 10.2116 10.8905 10.1658 10.9725 10.0844C11.0135 10.0437 11.0461 9.99529 11.0683 9.94198C11.0905 9.88867 11.1019 9.83148 11.1019 9.77373C11.1019 9.71597 11.0905 9.65879 11.0683 9.60547C11.0461 9.55216 11.0135 9.50377 10.9725 9.4631L10.3994 8.8856C10.3587 8.8446 10.3103 8.81205 10.257 8.78984C10.2037 8.76763 10.1465 8.75619 10.0888 8.75619C10.031 8.75619 9.97383 8.76763 9.92052 8.78984C9.8672 8.81205 9.81882 8.8446 9.77814 8.8856C9.36793 9.29569 8.81163 9.52607 8.23158 9.52607C7.65153 9.52607 7.09523 9.29569 6.68502 8.8856L5.14064 7.34123C4.78409 6.985 4.56149 6.51658 4.51047 6.01516C4.45945 5.51374 4.58315 5.01009 4.86064 4.58935L7.30189 7.0306C7.34256 7.07161 7.39095 7.10416 7.44426 7.12637C7.49758 7.14858 7.55476 7.16001 7.61252 7.16001C7.67027 7.16001 7.72746 7.14858 7.78077 7.12637C7.83408 7.10416 7.88247 7.07161 7.92314 7.0306L9.77814 5.1756C9.81915 5.13493 9.8517 5.08654 9.87391 5.03323C9.89612 4.97992 9.90756 4.92273 9.90756 4.86498C9.90756 4.80722 9.89612 4.75004 9.87391 4.69672C9.8517 4.64341 9.81915 4.59502 9.77814 4.55435L7.33689 2.1131C7.75715 1.83506 8.26051 1.71063 8.76192 1.76085C9.26332 1.81107 9.73201 2.03285 10.0888 2.38873L11.6331 3.93748C12.0432 4.34769 12.2736 4.90399 12.2736 5.48404C12.2736 6.06409 12.0432 6.62039 11.6331 7.0306C11.5921 7.07127 11.5596 7.11966 11.5374 7.17298C11.5152 7.22629 11.5037 7.28347 11.5037 7.34123C11.5037 7.39898 11.5152 7.45617 11.5374 7.50948C11.5596 7.56279 11.5921 7.61118 11.6331 7.65185L13.1819 9.18748L10.0888 12.2806C10.0448 12.324 10.0105 12.3762 9.98814 12.4337L8.48314 16.345L1.04564 22.4394C1.00102 22.4758 0.964027 22.5206 0.936787 22.5714C0.909548 22.6221 0.892597 22.6778 0.886906 22.7351C0.881216 22.7924 0.886898 22.8503 0.903626 22.9054C0.920354 22.9605 0.9478 23.0117 0.984388 23.0562C1.05783 23.1451 1.16336 23.2013 1.27804 23.2128C1.39273 23.2243 1.50731 23.19 1.59689 23.1175L9.12627 16.9619C9.18534 16.9131 9.2306 16.8498 9.25752 16.7781L10.7713 12.8406L14.1094 9.50248L15.0369 8.57498C15.1182 8.49362 15.2147 8.42908 15.3209 8.38505C15.4271 8.34102 15.541 8.31835 15.656 8.31835C15.7709 8.31835 15.8848 8.34102 15.991 8.38505C16.0973 8.42908 16.1938 8.49362 16.275 8.57498C16.4383 8.73724 16.531 8.95731 16.5331 9.18748C16.5332 9.30294 16.5105 9.41728 16.4662 9.5239C16.4219 9.63052 16.3569 9.72733 16.275 9.80873L14.14 11.9437C14.0585 12.0257 14.0128 12.1366 14.0128 12.2522C14.0128 12.3677 14.0585 12.4786 14.14 12.5606C14.222 12.6421 14.3329 12.6878 14.4485 12.6878C14.564 12.6878 14.6749 12.6421 14.7569 12.5606L16.8963 10.4256C17.0602 10.2626 17.282 10.1712 17.5131 10.1712C17.7443 10.1712 17.9661 10.2626 18.13 10.4256C18.2114 10.5069 18.2759 10.6034 18.32 10.7096C18.364 10.8158 18.3867 10.9297 18.3867 11.0447C18.3867 11.1597 18.364 11.2735 18.32 11.3797C18.2759 11.486 18.2114 11.5825 18.13 11.6637L15.7763 14.0175C15.7146 14.0787 15.6725 14.1569 15.6554 14.2421C15.6383 14.3273 15.647 14.4156 15.6803 14.4959C15.7136 14.5761 15.7701 14.6446 15.8425 14.6927C15.9149 14.7407 16 14.7661 16.0869 14.7656C16.2023 14.764 16.3124 14.7168 16.3931 14.6344L18.7513 12.2806C18.9155 12.1164 19.1381 12.0242 19.3703 12.0242C19.6025 12.0242 19.8252 12.1164 19.9894 12.2806C20.1536 12.4448 20.2458 12.6675 20.2458 12.8997C20.2458 13.1319 20.1536 13.3545 19.9894 13.5187L17.6313 15.8812C17.5903 15.9219 17.5577 15.9703 17.5355 16.0236C17.5133 16.0769 17.5019 16.1341 17.5019 16.1919C17.5019 16.2496 17.5133 16.3068 17.5355 16.3601C17.5577 16.4134 17.5903 16.4618 17.6313 16.5025C17.6719 16.5435 17.7203 16.576 17.7736 16.5982C17.827 16.6205 17.8841 16.6319 17.9419 16.6319C17.9997 16.6319 18.0568 16.6205 18.1102 16.5982C18.1635 16.576 18.2119 16.5435 18.2525 16.5025L20.6063 14.1444C20.7736 13.9862 20.9951 13.8981 21.2253 13.8981C21.4556 13.8981 21.6771 13.9862 21.8444 14.1444C21.9255 14.2261 21.9897 14.3231 22.0332 14.4297C22.0767 14.5363 22.0988 14.6504 22.0982 14.7656C22.0983 14.9967 22.0071 15.2184 21.8444 15.3825L17.5788 19.6481L13.6413 21.1618C13.5696 21.1888 13.5062 21.234 13.4575 21.2931L9.27502 26.4118C9.20249 26.5014 9.16824 26.616 9.1797 26.7307C9.19117 26.8454 9.24744 26.9509 9.33627 27.0244C9.41728 27.0915 9.5198 27.1273 9.62502 27.125C9.68964 27.1245 9.75336 27.1098 9.81161 27.0818C9.86986 27.0538 9.92118 27.0133 9.96189 26.9631L14.0744 21.9362L18.0119 20.4312C18.0675 20.4096 18.1181 20.3769 18.1606 20.335L22.4919 16.0037C22.8088 15.6703 22.9817 15.2255 22.9732 14.7656Z" fill="#EBEBEB"/>
</svg>
