<svg width="32" height="32" viewBox="0 0 32 32" fill="none" xmlns="http://www.w3.org/2000/svg">
<path d="M29.5201 2.482C27.9196 0.881481 25.7916 0 23.528 0C21.2645 0 19.1365 0.881481 17.5359 2.482L14.2938 5.72414C12.4055 7.61243 12.4055 10.685 14.2938 12.5733L14.3348 12.6143L12.2031 14.746C12.1684 14.7808 12.1375 14.8191 12.1109 14.8604L10.9938 16.5951L9.25903 17.7122C9.17619 17.7655 9.10571 17.836 9.0524 17.9188L7.93531 19.6536L6.20065 20.7707C6.11781 20.8241 6.04733 20.8945 5.99402 20.9773L4.87693 22.712L3.14227 23.8291C3.05943 23.8825 2.98895 23.9529 2.93565 24.0358L1.82591 25.7591L0.340364 26.6392C0.122084 26.7686 -0.00768754 27.0073 0.00251319 27.2608L0.160126 31.1799C0.174545 31.5394 0.46262 31.8274 0.8221 31.8418L4.74118 31.9994C4.75046 31.9998 4.75966 31.9999 4.76894 31.9999C4.95156 31.9999 5.12727 31.9274 5.25696 31.7977L19.3877 17.6671L19.4288 17.7083C20.3731 18.6525 21.6132 19.1245 22.8534 19.1245C24.0936 19.1245 25.3338 18.6525 26.278 17.7083L29.5201 14.4662C32.8242 11.1621 32.8242 5.78604 29.5201 2.482ZM2.66974 26.8637C2.76193 26.8091 2.84016 26.7337 2.89822 26.6436L4.01524 24.9089L5.74997 23.7918C5.83281 23.7384 5.90329 23.668 5.9566 23.5852L7.07369 21.8504L8.80835 20.7333C8.89119 20.6799 8.96167 20.6095 9.01497 20.5267L10.1321 18.792L11.8667 17.6749C11.9496 17.6216 12.02 17.5511 12.0734 17.4683L13.2314 15.67L15.3109 13.5905L16.9338 15.2134L1.65365 30.4937L1.51391 30.4881L1.39848 27.617L2.66974 26.8637ZM4.49459 30.6079L3.53059 30.5691L17.9101 16.1897L18.4114 16.691L4.49459 30.6079ZM28.5439 13.49L25.3018 16.7322C23.9518 18.0821 21.7552 18.0823 20.4051 16.7322L15.2699 11.5971C14.616 10.9431 14.2558 10.0736 14.2558 9.14875C14.2558 8.22386 14.6159 7.35434 15.2699 6.70035L18.5121 3.4582C19.8519 2.11838 21.6333 1.38055 23.528 1.38055C25.4228 1.38055 27.2042 2.11838 28.5439 3.4582L29.032 2.9701L28.5439 3.4582C31.3097 6.22398 31.3097 10.7243 28.5439 13.49Z" fill="#948DA5"/>
<path d="M27.2394 4.87583C25.7647 3.35546 23.4617 2.88906 21.5087 3.71525C21.2981 3.80437 21.1453 3.99205 21.1007 4.21631C21.056 4.44057 21.1255 4.6725 21.286 4.83541L27.1199 10.7566C27.2509 10.8895 27.4285 10.9624 27.6117 10.9624C27.6538 10.9624 27.6962 10.9586 27.7383 10.9507C27.9638 10.9086 28.1537 10.7572 28.2449 10.5467C29.0884 8.60101 28.6937 6.37511 27.2394 4.87583ZM27.2702 8.94193L23.103 4.71254C24.2501 4.58775 25.4253 4.98834 26.2486 5.837C27.0567 6.67024 27.4162 7.81326 27.2702 8.94193Z" fill="#948DA5"/>
</svg>
