<svg width="32" height="32" viewBox="0 0 32 32" fill="none" xmlns="http://www.w3.org/2000/svg">
    <path d="M31.3547 7.43414H28.4649V4.94706C28.4649 4.59071 28.176 4.30176 27.8196 4.30176H25.3545C24.9981 4.30176 24.7092 4.59071 24.7092 4.94706V7.43422H7.29081V4.94706C7.29081 4.59071 7.00193 4.30176 6.6455 4.30176H4.18051C3.82408 4.30176 3.5352 4.59071 3.5352 4.94706V7.43422H0.645306C0.288882 7.43422 0 7.72317 0 8.07952V12.1693C0 12.5256 0.288882 12.8146 0.645306 12.8146H0.763684V27.0531C0.763684 27.4094 1.05257 27.6984 1.40899 27.6984H30.5912C30.9476 27.6984 31.2365 27.4094 31.2365 27.0531V12.8145H31.3546C31.711 12.8145 31.9999 12.5255 31.9999 12.1692V8.07945C32 7.7231 31.7111 7.43414 31.3547 7.43414ZM25.9998 5.59237H27.1743V7.43422H25.9998V5.59237ZM4.82581 5.59237H6.0002V7.43422H4.82581V5.59237ZM1.29061 8.72476H30.7094V11.5239H1.29061V8.72476ZM29.9458 26.4078H2.0543V12.8145H29.9458V26.4078Z" fill="#948DA5"/>
    <path d="M5.57829 18.0378V18.6114C5.57829 18.9678 5.86717 19.2568 6.22359 19.2568C6.58002 19.2568 6.8689 18.9678 6.8689 18.6114V18.0378H7.4425C7.79893 18.0378 8.08781 17.7489 8.08781 17.3925C8.08781 17.0362 7.79893 16.7472 7.4425 16.7472H6.8689V16.1736C6.8689 15.8173 6.58002 15.5283 6.22359 15.5283C5.86717 15.5283 5.57829 15.8173 5.57829 16.1736V16.7472H5.00468C4.64826 16.7472 4.35938 17.0362 4.35938 17.3925C4.35938 17.7489 4.64826 18.0378 5.00468 18.0378H5.57829Z" fill="#948DA5"/>
    <path d="M6.22354 20.9061C8.16082 20.9061 9.73687 19.33 9.73687 17.3927C9.73687 15.4554 8.16082 13.8794 6.22354 13.8794C4.28626 13.8794 2.71021 15.4554 2.71021 17.3927C2.71021 19.33 4.28626 20.9061 6.22354 20.9061ZM6.22354 15.17C7.44919 15.17 8.44626 16.1671 8.44626 17.3927C8.44626 18.6184 7.44919 19.6155 6.22354 19.6155C4.99789 19.6155 4.00082 18.6184 4.00082 17.3927C4.00082 16.1671 4.99789 15.17 6.22354 15.17Z" fill="#948DA5"/>
    <path d="M27.2228 18.0379C27.5792 18.0379 27.8681 17.749 27.8681 17.3926C27.8681 17.0363 27.5792 16.7473 27.2228 16.7473H24.785C24.4285 16.7473 24.1396 17.0363 24.1396 17.3926C24.1396 17.749 24.4285 18.0379 24.785 18.0379H27.2228Z" fill="#948DA5"/>
    <path d="M26.0038 20.9061C27.9411 20.9061 29.5171 19.33 29.5171 17.3927C29.5171 15.4554 27.9411 13.8794 26.0038 13.8794C24.0665 13.8794 22.4905 15.4554 22.4905 17.3927C22.4905 19.33 24.0665 20.9061 26.0038 20.9061ZM26.0038 15.17C27.2295 15.17 28.2265 16.1671 28.2265 17.3927C28.2265 18.6184 27.2295 19.6155 26.0038 19.6155C24.7782 19.6155 23.7811 18.6184 23.7811 17.3927C23.7811 16.1671 24.7782 15.17 26.0038 15.17Z" fill="#948DA5"/>
    <path d="M13.8635 19.722C14.0707 19.8806 14.3531 19.8986 14.579 19.7678L16.7204 18.5268L15.2726 23.9658C15.1809 24.3102 15.3858 24.6638 15.7302 24.7554C15.7858 24.7702 15.8417 24.7773 15.8966 24.7773C16.1819 24.7773 16.4429 24.5866 16.5197 24.2978L18.3683 17.3533C18.4355 17.1011 18.344 16.8333 18.1367 16.6747C17.9294 16.5162 17.6471 16.4981 17.4212 16.629L15.2798 17.87L16.1897 14.4518C16.2813 14.1074 16.0765 13.7539 15.7321 13.6622C15.3874 13.5706 15.0342 13.7754 14.9425 14.1198L13.6318 19.0434C13.5647 19.2956 13.6561 19.5635 13.8635 19.722Z" fill="#948DA5"/>
</svg>
