<svg width="28" height="28" viewBox="0 0 28 28" fill="none" xmlns="http://www.w3.org/2000/svg">
<g clip-path="url(#clip0)">
<path d="M23.899 4.10197C21.2548 1.45737 17.7392 0.000976562 14 0.000976562C10.2604 0.000976562 6.74516 1.45737 4.101 4.10197C1.45639 6.74614 0 10.2613 0 14.0005C0 17.7397 1.45639 21.2549 4.101 23.8991C6.74516 26.5437 10.2604 28.0001 14 28.0001C17.7392 28.0001 21.2548 26.5437 23.899 23.8991C26.5436 21.2549 28 17.7397 28 14.0005C28 10.2613 26.5436 6.74614 23.899 4.10197ZM23.2804 23.2805C20.8016 25.7597 17.5056 27.1251 14 27.1251C10.494 27.1251 7.1984 25.7597 4.7196 23.2805C2.24037 20.8017 0.874973 17.5061 0.874973 14.0005C0.874973 10.495 2.24037 7.19938 4.7196 4.72058C7.1984 2.24134 10.494 0.875949 14 0.875949C17.5056 0.875949 20.8016 2.24134 23.2804 4.72058C25.7596 7.19938 27.125 10.495 27.125 14.0005C27.125 17.5061 25.7596 20.8017 23.2804 23.2805Z" fill="#EBEBEB"/>
<path d="M13.5623 7.00023H10.9374H10.4999H10.062V14.875H8.31201V15.75L10.062 15.7495V17.4999H8.31201V18.3749H10.062V20.9998H10.9369V18.3749H13.9993V17.4999H10.9369V15.7491L13.522 15.7482C13.5457 15.7504 13.6935 15.7626 13.9258 15.7626C14.691 15.7626 16.3731 15.6279 17.5587 14.5447C18.3899 13.7856 18.8117 12.719 18.8117 11.3751C18.8117 10.0311 18.3899 8.96454 17.5587 8.2055C16.0131 6.79286 13.6231 6.99235 13.5623 7.00023ZM16.9725 13.8959C15.7147 15.0478 13.6235 14.8794 13.5623 14.875H10.9369V7.87476L13.6017 7.87345C13.6222 7.87126 15.7042 7.69714 16.9686 8.85123C17.6112 9.4379 17.9367 10.2875 17.9367 11.3751C17.9371 12.4609 17.6125 13.3092 16.9725 13.8959Z" fill="#EBEBEB"/>
</g>
<defs>
<clipPath id="clip0">
<rect width="28" height="28" fill="white"/>
</clipPath>
</defs>
</svg>
