<svg width="232" height="57" viewBox="0 0 232 57" fill="none" xmlns="http://www.w3.org/2000/svg">
<path d="M69.4928 10.96H64.1888V25H59.1188V10.96H53.7888V6.54H69.4928V10.96ZM84.7944 20.58V25H71.6384V6.54H84.5604V10.96H76.7084V13.56H83.4164V17.668H76.7084V20.58H84.7944ZM90.9587 6.54L94.3127 12.364L97.6667 6.54H103.127L96.9647 15.9L102.919 25H97.4587L94.3127 19.436L91.1667 25H85.6807L91.6347 15.9L85.4727 6.54H90.9587ZM104.732 6.54H120.566V25H115.496V10.96H109.802V25H104.732V6.54ZM132.363 25.156C130.959 25.156 129.685 24.8873 128.541 24.35C127.397 23.8127 126.418 23.1107 125.603 22.244C124.789 21.36 124.156 20.3547 123.705 19.228C123.255 18.1013 123.029 16.94 123.029 15.744C123.029 14.5307 123.263 13.3607 123.731 12.234C124.199 11.1073 124.849 10.1193 125.681 9.27C126.531 8.40333 127.527 7.71867 128.671 7.216C129.833 6.696 131.098 6.436 132.467 6.436C133.871 6.436 135.145 6.70467 136.289 7.242C137.433 7.77933 138.413 8.49 139.227 9.374C140.042 10.258 140.666 11.2633 141.099 12.39C141.55 13.5167 141.775 14.6693 141.775 15.848C141.775 17.0613 141.541 18.2313 141.073 19.358C140.605 20.4673 139.955 21.4553 139.123 22.322C138.291 23.1713 137.295 23.856 136.133 24.376C134.989 24.896 133.733 25.156 132.363 25.156ZM128.177 15.796C128.177 16.42 128.264 17.0267 128.437 17.616C128.611 18.188 128.871 18.6993 129.217 19.15C129.564 19.6007 129.997 19.9647 130.517 20.242C131.055 20.5193 131.687 20.658 132.415 20.658C133.143 20.658 133.776 20.5193 134.313 20.242C134.851 19.9473 135.284 19.5747 135.613 19.124C135.96 18.656 136.211 18.1273 136.367 17.538C136.541 16.9487 136.627 16.3507 136.627 15.744C136.627 15.12 136.541 14.522 136.367 13.95C136.194 13.3607 135.925 12.8493 135.561 12.416C135.215 11.9653 134.773 11.61 134.235 11.35C133.715 11.0727 133.1 10.934 132.389 10.934C131.661 10.934 131.029 11.0727 130.491 11.35C129.971 11.6273 129.538 12 129.191 12.468C128.845 12.9187 128.585 13.4387 128.411 14.028C128.255 14.6 128.177 15.1893 128.177 15.796ZM158.185 25V15.276L155.091 22.114H152.387L149.293 15.276V25H144.223V6.54H149.761L153.739 15.224L157.743 6.54H163.255V25H158.185ZM175.054 25.156C173.65 25.156 172.376 24.8873 171.232 24.35C170.088 23.8127 169.109 23.1107 168.294 22.244C167.479 21.36 166.847 20.3547 166.396 19.228C165.945 18.1013 165.72 16.94 165.72 15.744C165.72 14.5307 165.954 13.3607 166.422 12.234C166.89 11.1073 167.54 10.1193 168.372 9.27C169.221 8.40333 170.218 7.71867 171.362 7.216C172.523 6.696 173.789 6.436 175.158 6.436C176.562 6.436 177.836 6.70467 178.98 7.242C180.124 7.77933 181.103 8.49 181.918 9.374C182.733 10.258 183.357 11.2633 183.79 12.39C184.241 13.5167 184.466 14.6693 184.466 15.848C184.466 17.0613 184.232 18.2313 183.764 19.358C183.296 20.4673 182.646 21.4553 181.814 22.322C180.982 23.1713 179.985 23.856 178.824 24.376C177.68 24.896 176.423 25.156 175.054 25.156ZM170.868 15.796C170.868 16.42 170.955 17.0267 171.128 17.616C171.301 18.188 171.561 18.6993 171.908 19.15C172.255 19.6007 172.688 19.9647 173.208 20.242C173.745 20.5193 174.378 20.658 175.106 20.658C175.834 20.658 176.467 20.5193 177.004 20.242C177.541 19.9473 177.975 19.5747 178.304 19.124C178.651 18.656 178.902 18.1273 179.058 17.538C179.231 16.9487 179.318 16.3507 179.318 15.744C179.318 15.12 179.231 14.522 179.058 13.95C178.885 13.3607 178.616 12.8493 178.252 12.416C177.905 11.9653 177.463 11.61 176.926 11.35C176.406 11.0727 175.791 10.934 175.08 10.934C174.352 10.934 173.719 11.0727 173.182 11.35C172.662 11.6273 172.229 12 171.882 12.468C171.535 12.9187 171.275 13.4387 171.102 14.028C170.946 14.6 170.868 15.1893 170.868 15.796ZM208.052 25H186.914V6.54H191.984V20.58H196.118V6.54H201.188V20.58H205.322V6.54H210.392V20.58H212.992V29.316H208.052V25ZM215.394 6.54H220.464V12.65H223.48C224.52 12.65 225.447 12.7887 226.262 13.066C227.094 13.3433 227.796 13.7507 228.368 14.288C228.957 14.808 229.408 15.4407 229.72 16.186C230.032 16.9313 230.188 17.772 230.188 18.708C230.188 20.6667 229.616 22.2093 228.472 23.336C227.328 24.4453 225.751 25 223.74 25H215.394V6.54ZM220.464 20.736H223.012C223.671 20.736 224.165 20.554 224.494 20.19C224.841 19.8087 225.014 19.2973 225.014 18.656C225.014 18.1013 224.841 17.6247 224.494 17.226C224.165 16.81 223.671 16.602 223.012 16.602H220.464V20.736Z" fill="#514158"/>
<path d="M54.1768 45.284C54.1768 44.624 54.2908 44 54.5188 43.412C54.7468 42.824 55.0708 42.314 55.4908 41.882C55.9108 41.438 56.4088 41.09 56.9848 40.838C57.5728 40.574 58.2268 40.442 58.9468 40.442C59.8828 40.442 60.6868 40.652 61.3588 41.072C62.0428 41.48 62.5588 42.032 62.9068 42.728L61.3588 43.214C61.1188 42.77 60.7828 42.428 60.3508 42.188C59.9188 41.936 59.4388 41.81 58.9108 41.81C58.4788 41.81 58.0708 41.9 57.6868 42.08C57.3028 42.248 56.9728 42.488 56.6968 42.8C56.4208 43.112 56.1988 43.478 56.0308 43.898C55.8748 44.318 55.7968 44.78 55.7968 45.284C55.7968 45.776 55.8808 46.238 56.0488 46.67C56.2168 47.102 56.4388 47.48 56.7148 47.804C57.0028 48.116 57.3328 48.362 57.7048 48.542C58.0888 48.722 58.4968 48.812 58.9288 48.812C59.2048 48.812 59.4748 48.776 59.7388 48.704C60.0148 48.62 60.2608 48.512 60.4768 48.38C60.7048 48.248 60.9028 48.098 61.0708 47.93C61.2388 47.75 61.3588 47.558 61.4308 47.354L62.9788 47.822C62.8348 48.17 62.6308 48.488 62.3668 48.776C62.1148 49.064 61.8148 49.31 61.4668 49.514C61.1188 49.718 60.7288 49.88 60.2968 50C59.8768 50.12 59.4328 50.18 58.9648 50.18C58.2568 50.18 57.6088 50.048 57.0208 49.784C56.4328 49.52 55.9288 49.166 55.5088 48.722C55.0888 48.278 54.7588 47.762 54.5188 47.174C54.2908 46.574 54.1768 45.944 54.1768 45.284ZM68.8437 50.18C68.1357 50.18 67.4877 50.054 66.8997 49.802C66.3117 49.538 65.8077 49.184 65.3877 48.74C64.9677 48.296 64.6377 47.78 64.3977 47.192C64.1697 46.592 64.0557 45.962 64.0557 45.302C64.0557 44.642 64.1697 44.018 64.3977 43.43C64.6377 42.842 64.9677 42.326 65.3877 41.882C65.8197 41.438 66.3297 41.09 66.9177 40.838C67.5057 40.574 68.1537 40.442 68.8617 40.442C69.5697 40.442 70.2117 40.574 70.7877 40.838C71.3757 41.102 71.8737 41.456 72.2817 41.9C72.6897 42.332 73.0017 42.842 73.2177 43.43C73.4457 44.006 73.5597 44.606 73.5597 45.23C73.5597 45.362 73.5537 45.482 73.5417 45.59C73.5417 45.698 73.5357 45.782 73.5237 45.842H65.7297C65.7657 46.31 65.8737 46.736 66.0537 47.12C66.2337 47.504 66.4677 47.834 66.7557 48.11C67.0437 48.386 67.3677 48.602 67.7277 48.758C68.0997 48.914 68.4897 48.992 68.8977 48.992C69.1857 48.992 69.4677 48.956 69.7437 48.884C70.0197 48.8 70.2777 48.692 70.5177 48.56C70.7577 48.428 70.9677 48.266 71.1477 48.074C71.3397 47.882 71.4837 47.666 71.5797 47.426L72.9477 47.804C72.7917 48.152 72.5757 48.47 72.2997 48.758C72.0357 49.046 71.7237 49.298 71.3637 49.514C71.0157 49.718 70.6257 49.88 70.1937 50C69.7617 50.12 69.3117 50.18 68.8437 50.18ZM72.0657 44.672C72.0297 44.228 71.9157 43.82 71.7237 43.448C71.5437 43.064 71.3097 42.74 71.0217 42.476C70.7457 42.212 70.4217 42.008 70.0497 41.864C69.6777 41.708 69.2817 41.63 68.8617 41.63C68.4417 41.63 68.0457 41.708 67.6737 41.864C67.3017 42.008 66.9717 42.218 66.6837 42.494C66.4077 42.758 66.1797 43.076 65.9997 43.448C65.8317 43.82 65.7297 44.228 65.6937 44.672H72.0657ZM79.0306 50H77.4826V41.972H74.3326V40.604H82.1806V41.972H79.0306V50ZM83.8643 40.604H85.4123V43.844H87.1943C87.6023 43.844 87.9983 43.91 88.3823 44.042C88.7783 44.162 89.1263 44.354 89.4263 44.618C89.7383 44.87 89.9903 45.194 90.1823 45.59C90.3743 45.974 90.4703 46.43 90.4703 46.958C90.4703 47.486 90.3743 47.942 90.1823 48.326C89.9903 48.71 89.7383 49.028 89.4263 49.28C89.1263 49.52 88.7783 49.7 88.3823 49.82C87.9863 49.94 87.5843 50 87.1763 50H83.8643V40.604ZM87.1763 48.668C87.6923 48.668 88.1063 48.53 88.4183 48.254C88.7423 47.966 88.9043 47.534 88.9043 46.958C88.9043 46.37 88.7303 45.926 88.3823 45.626C88.0463 45.326 87.6503 45.176 87.1943 45.176H85.4123V48.668H87.1763ZM99.1954 50.18C98.7514 50.18 98.3374 50.108 97.9534 49.964C97.5694 49.808 97.2334 49.598 96.9454 49.334C96.6694 49.07 96.4474 48.764 96.2794 48.416C96.1234 48.056 96.0454 47.666 96.0454 47.246C96.0454 46.814 96.1414 46.424 96.3334 46.076C96.5254 45.716 96.7954 45.41 97.1434 45.158C97.5034 44.906 97.9234 44.708 98.4034 44.564C98.8954 44.42 99.4294 44.348 100.005 44.348C100.461 44.348 100.923 44.39 101.391 44.474C101.859 44.558 102.273 44.672 102.633 44.816V44.06C102.633 43.292 102.417 42.692 101.985 42.26C101.553 41.816 100.941 41.594 100.149 41.594C99.2014 41.594 98.2054 41.96 97.1614 42.692L96.6394 41.666C97.8514 40.85 99.0694 40.442 100.293 40.442C101.529 40.442 102.489 40.772 103.173 41.432C103.869 42.092 104.217 43.022 104.217 44.222V48.056C104.217 48.428 104.385 48.62 104.721 48.632V50C104.553 50.024 104.415 50.042 104.307 50.054C104.199 50.066 104.085 50.072 103.965 50.072C103.653 50.072 103.401 49.982 103.209 49.802C103.029 49.61 102.921 49.382 102.885 49.118L102.849 48.452C102.429 49.016 101.895 49.448 101.247 49.748C100.611 50.036 99.9274 50.18 99.1954 50.18ZM99.6094 48.992C100.173 48.992 100.695 48.89 101.175 48.686C101.667 48.47 102.039 48.188 102.291 47.84C102.519 47.612 102.633 47.378 102.633 47.138V45.752C101.865 45.452 101.067 45.302 100.239 45.302C99.4474 45.302 98.7994 45.47 98.2954 45.806C97.8034 46.142 97.5574 46.58 97.5574 47.12C97.5574 47.384 97.6054 47.63 97.7014 47.858C97.8094 48.086 97.9534 48.284 98.1334 48.452C98.3254 48.62 98.5474 48.752 98.7994 48.848C99.0514 48.944 99.3214 48.992 99.6094 48.992ZM111.574 40.604C111.91 40.604 112.222 40.664 112.51 40.784C112.798 40.892 113.05 41.048 113.266 41.252C113.482 41.456 113.65 41.702 113.77 41.99C113.89 42.266 113.95 42.572 113.95 42.908C113.95 43.112 113.926 43.322 113.878 43.538C113.83 43.742 113.752 43.946 113.644 44.15C113.548 44.342 113.416 44.522 113.248 44.69C113.08 44.858 112.876 44.99 112.636 45.086C113.152 45.23 113.56 45.5 113.86 45.896C114.16 46.28 114.31 46.766 114.31 47.354C114.31 47.75 114.238 48.116 114.094 48.452C113.95 48.776 113.746 49.052 113.482 49.28C113.23 49.508 112.924 49.688 112.564 49.82C112.216 49.94 111.826 50 111.394 50H106.84V40.604H111.574ZM110.944 44.618C111.4 44.618 111.754 44.492 112.006 44.24C112.27 43.976 112.402 43.616 112.402 43.16C112.402 42.776 112.3 42.452 112.096 42.188C111.892 41.912 111.55 41.774 111.07 41.774H108.388V44.618H110.944ZM111.214 48.83C111.694 48.83 112.072 48.68 112.348 48.38C112.636 48.068 112.78 47.702 112.78 47.282C112.78 46.886 112.648 46.538 112.384 46.238C112.12 45.938 111.742 45.788 111.25 45.788H108.388V48.83H111.214ZM120.058 50H118.51V41.972H115.36V40.604H123.208V41.972H120.058V50ZM128.784 50.18C128.076 50.18 127.428 50.048 126.84 49.784C126.264 49.52 125.766 49.166 125.346 48.722C124.938 48.278 124.62 47.762 124.392 47.174C124.164 46.586 124.05 45.968 124.05 45.32C124.05 44.66 124.164 44.036 124.392 43.448C124.632 42.86 124.956 42.344 125.364 41.9C125.784 41.456 126.282 41.102 126.858 40.838C127.446 40.574 128.088 40.442 128.784 40.442C129.48 40.442 130.122 40.574 130.71 40.838C131.298 41.102 131.796 41.456 132.204 41.9C132.624 42.344 132.948 42.86 133.176 43.448C133.416 44.036 133.536 44.66 133.536 45.32C133.536 45.968 133.422 46.586 133.194 47.174C132.966 47.762 132.642 48.278 132.222 48.722C131.802 49.166 131.298 49.52 130.71 49.784C130.134 50.048 129.492 50.18 128.784 50.18ZM125.67 45.338C125.67 45.83 125.748 46.286 125.904 46.706C126.072 47.126 126.294 47.492 126.57 47.804C126.858 48.116 127.188 48.362 127.56 48.542C127.944 48.722 128.352 48.812 128.784 48.812C129.216 48.812 129.618 48.722 129.99 48.542C130.374 48.362 130.71 48.116 130.998 47.804C131.286 47.48 131.508 47.108 131.664 46.688C131.832 46.256 131.916 45.794 131.916 45.302C131.916 44.822 131.832 44.372 131.664 43.952C131.508 43.52 131.286 43.148 130.998 42.836C130.71 42.512 130.374 42.26 129.99 42.08C129.618 41.9 129.216 41.81 128.784 41.81C128.352 41.81 127.944 41.906 127.56 42.098C127.188 42.278 126.858 42.53 126.57 42.854C126.294 43.166 126.072 43.538 125.904 43.97C125.748 44.39 125.67 44.846 125.67 45.338ZM140.261 46.562L143.447 40.604H145.013V50H143.465V43.376L140.711 48.47H139.811L137.039 43.376V50H135.491V40.604H137.075L140.261 46.562ZM151.76 50.18C151.052 50.18 150.404 50.054 149.816 49.802C149.228 49.538 148.724 49.184 148.304 48.74C147.884 48.296 147.554 47.78 147.314 47.192C147.086 46.592 146.972 45.962 146.972 45.302C146.972 44.642 147.086 44.018 147.314 43.43C147.554 42.842 147.884 42.326 148.304 41.882C148.736 41.438 149.246 41.09 149.834 40.838C150.422 40.574 151.07 40.442 151.778 40.442C152.486 40.442 153.128 40.574 153.704 40.838C154.292 41.102 154.79 41.456 155.198 41.9C155.606 42.332 155.918 42.842 156.134 43.43C156.362 44.006 156.476 44.606 156.476 45.23C156.476 45.362 156.47 45.482 156.458 45.59C156.458 45.698 156.452 45.782 156.44 45.842H148.646C148.682 46.31 148.79 46.736 148.97 47.12C149.15 47.504 149.384 47.834 149.672 48.11C149.96 48.386 150.284 48.602 150.644 48.758C151.016 48.914 151.406 48.992 151.814 48.992C152.102 48.992 152.384 48.956 152.66 48.884C152.936 48.8 153.194 48.692 153.434 48.56C153.674 48.428 153.884 48.266 154.064 48.074C154.256 47.882 154.4 47.666 154.496 47.426L155.864 47.804C155.708 48.152 155.492 48.47 155.216 48.758C154.952 49.046 154.64 49.298 154.28 49.514C153.932 49.718 153.542 49.88 153.11 50C152.678 50.12 152.228 50.18 151.76 50.18ZM154.982 44.672C154.946 44.228 154.832 43.82 154.64 43.448C154.46 43.064 154.226 42.74 153.938 42.476C153.662 42.212 153.338 42.008 152.966 41.864C152.594 41.708 152.198 41.63 151.778 41.63C151.358 41.63 150.962 41.708 150.59 41.864C150.218 42.008 149.888 42.218 149.6 42.494C149.324 42.758 149.096 43.076 148.916 43.448C148.748 43.82 148.646 44.228 148.61 44.672H154.982ZM158.497 40.604L161.071 44.06L161.215 44.348L161.377 44.06L163.933 40.604H165.607L162.097 45.32L165.625 50H163.951L161.377 46.562L161.215 46.292L161.071 46.562L158.497 50H156.823L160.351 45.32L156.841 40.604H158.497ZM169.438 50.18C168.994 50.18 168.58 50.108 168.196 49.964C167.812 49.808 167.476 49.598 167.188 49.334C166.912 49.07 166.69 48.764 166.522 48.416C166.366 48.056 166.288 47.666 166.288 47.246C166.288 46.814 166.384 46.424 166.576 46.076C166.768 45.716 167.038 45.41 167.386 45.158C167.746 44.906 168.166 44.708 168.646 44.564C169.138 44.42 169.672 44.348 170.248 44.348C170.704 44.348 171.166 44.39 171.634 44.474C172.102 44.558 172.516 44.672 172.876 44.816V44.06C172.876 43.292 172.66 42.692 172.228 42.26C171.796 41.816 171.184 41.594 170.392 41.594C169.444 41.594 168.448 41.96 167.404 42.692L166.882 41.666C168.094 40.85 169.312 40.442 170.536 40.442C171.772 40.442 172.732 40.772 173.416 41.432C174.112 42.092 174.46 43.022 174.46 44.222V48.056C174.46 48.428 174.628 48.62 174.964 48.632V50C174.796 50.024 174.658 50.042 174.55 50.054C174.442 50.066 174.328 50.072 174.208 50.072C173.896 50.072 173.644 49.982 173.452 49.802C173.272 49.61 173.164 49.382 173.128 49.118L173.092 48.452C172.672 49.016 172.138 49.448 171.49 49.748C170.854 50.036 170.17 50.18 169.438 50.18ZM169.852 48.992C170.416 48.992 170.938 48.89 171.418 48.686C171.91 48.47 172.282 48.188 172.534 47.84C172.762 47.612 172.876 47.378 172.876 47.138V45.752C172.108 45.452 171.31 45.302 170.482 45.302C169.69 45.302 169.042 45.47 168.538 45.806C168.046 46.142 167.8 46.58 167.8 47.12C167.8 47.384 167.848 47.63 167.944 47.858C168.052 48.086 168.196 48.284 168.376 48.452C168.568 48.62 168.79 48.752 169.042 48.848C169.294 48.944 169.564 48.992 169.852 48.992ZM178.594 44.51H183.346V40.604H184.894V50H183.346V45.824H178.594V50H177.046V40.604H178.594V44.51ZM189.07 47.768L194.182 40.604H195.46V50H193.912V42.98L188.89 50H187.522V40.604H189.07V47.768ZM203.703 40.604H205.467L201.777 45.176L205.719 50H203.973L200.751 45.878H199.653V50H198.105V40.604H199.653V44.69H200.571L203.703 40.604ZM210.68 50.18C209.972 50.18 209.324 50.048 208.736 49.784C208.16 49.52 207.662 49.166 207.242 48.722C206.834 48.278 206.516 47.762 206.288 47.174C206.06 46.586 205.946 45.968 205.946 45.32C205.946 44.66 206.06 44.036 206.288 43.448C206.528 42.86 206.852 42.344 207.26 41.9C207.68 41.456 208.178 41.102 208.754 40.838C209.342 40.574 209.984 40.442 210.68 40.442C211.376 40.442 212.018 40.574 212.606 40.838C213.194 41.102 213.692 41.456 214.1 41.9C214.52 42.344 214.844 42.86 215.072 43.448C215.312 44.036 215.432 44.66 215.432 45.32C215.432 45.968 215.318 46.586 215.09 47.174C214.862 47.762 214.538 48.278 214.118 48.722C213.698 49.166 213.194 49.52 212.606 49.784C212.03 50.048 211.388 50.18 210.68 50.18ZM207.566 45.338C207.566 45.83 207.644 46.286 207.8 46.706C207.968 47.126 208.19 47.492 208.466 47.804C208.754 48.116 209.084 48.362 209.456 48.542C209.84 48.722 210.248 48.812 210.68 48.812C211.112 48.812 211.514 48.722 211.886 48.542C212.27 48.362 212.606 48.116 212.894 47.804C213.182 47.48 213.404 47.108 213.56 46.688C213.728 46.256 213.812 45.794 213.812 45.302C213.812 44.822 213.728 44.372 213.56 43.952C213.404 43.52 213.182 43.148 212.894 42.836C212.606 42.512 212.27 42.26 211.886 42.08C211.514 41.9 211.112 41.81 210.68 41.81C210.248 41.81 209.84 41.906 209.456 42.098C209.084 42.278 208.754 42.53 208.466 42.854C208.19 43.166 207.968 43.538 207.8 43.97C207.644 44.39 207.566 44.846 207.566 45.338ZM222.158 40.604C222.494 40.604 222.806 40.664 223.094 40.784C223.382 40.892 223.634 41.048 223.85 41.252C224.066 41.456 224.234 41.702 224.354 41.99C224.474 42.266 224.534 42.572 224.534 42.908C224.534 43.112 224.51 43.322 224.462 43.538C224.414 43.742 224.336 43.946 224.228 44.15C224.132 44.342 224 44.522 223.832 44.69C223.664 44.858 223.46 44.99 223.22 45.086C223.736 45.23 224.144 45.5 224.444 45.896C224.744 46.28 224.894 46.766 224.894 47.354C224.894 47.75 224.822 48.116 224.678 48.452C224.534 48.776 224.33 49.052 224.066 49.28C223.814 49.508 223.508 49.688 223.148 49.82C222.8 49.94 222.41 50 221.978 50H217.424V40.604H222.158ZM221.528 44.618C221.984 44.618 222.338 44.492 222.59 44.24C222.854 43.976 222.986 43.616 222.986 43.16C222.986 42.776 222.884 42.452 222.68 42.188C222.476 41.912 222.134 41.774 221.654 41.774H218.972V44.618H221.528ZM221.798 48.83C222.278 48.83 222.656 48.68 222.932 48.38C223.22 48.068 223.364 47.702 223.364 47.282C223.364 46.886 223.232 46.538 222.968 46.238C222.704 45.938 222.326 45.788 221.834 45.788H218.972V48.83H221.798Z" fill="#FF4769"/>
<path d="M30.119 12.9909L16.6229 20.1469C16.1209 20.4131 15.7876 20.8141 15.6231 21.3499C15.4555 21.8959 15.508 22.4096 15.7803 22.8917L16.8848 25.0228C17.1643 25.5179 17.5669 25.8459 18.0924 26.0073C18.6283 26.1718 19.1405 26.1246 19.6294 25.8653L33.1451 18.6986C32.2758 18.0002 31.5767 17.1523 31.0474 16.1548C30.5187 15.1572 30.2093 14.1027 30.119 12.9909ZM20.9278 22.6632C20.6765 22.7961 20.4196 22.8224 20.1569 22.7418C19.894 22.6611 19.6961 22.4951 19.563 22.2442C19.4299 21.9931 19.4036 21.7363 19.4843 21.4734C19.5649 21.2108 19.7309 21.0126 19.982 20.8792C20.2329 20.7464 20.4897 20.72 20.7527 20.8008C21.0156 20.8815 21.2136 21.0475 21.3468 21.2982C21.4798 21.5494 21.5059 21.8067 21.4253 22.0693C21.3446 22.3321 21.1787 22.53 20.9278 22.6632Z" fill="#514158"/>
<path d="M44.7714 14.6351C44.7166 14.5075 44.6132 14.4206 44.4618 14.3741C44.3709 14.3462 43.9595 14.4164 43.2274 14.5843C42.4957 14.7523 41.685 14.9513 40.7958 15.1817C39.9063 15.4121 39.4318 15.5346 39.3721 15.5495L36.9435 13.0286L37.9862 9.63197L43.2157 8.43306C43.4115 8.37155 43.5359 8.25484 43.5886 8.08298C43.6413 7.91122 43.6039 7.7449 43.4763 7.58405C43.1245 7.14408 42.6532 6.74219 42.0629 6.37847C41.4721 6.01464 40.8835 5.74263 40.2973 5.56268C38.4272 4.98859 36.6234 5.16232 34.8862 6.08352C33.1486 7.00448 31.9931 8.40036 31.419 10.2704C30.8449 12.1405 31.0185 13.9444 31.9397 15.6817C32.8608 17.4188 34.2564 18.5748 36.1264 19.1489C37.5519 19.5865 38.9882 19.5652 40.435 19.086C41.8817 18.6065 43.0509 17.7625 43.9418 16.5537C44.382 15.9478 44.6628 15.4477 44.7838 15.0535C44.8306 14.9024 44.8261 14.7627 44.7714 14.6351Z" fill="#514158"/>
<path d="M29.89 43.3817L16.532 35.9713C16.0351 35.6957 15.7094 35.2884 15.5551 34.7496C15.3978 34.2006 15.4601 33.6879 15.7415 33.211L16.8861 31.1013C17.175 30.6115 17.5837 30.2912 18.1122 30.1398C18.6511 29.9855 19.1623 30.0424 19.6462 30.3109L33.0237 37.7324C32.1414 38.4142 31.4263 39.2486 30.8783 40.236C30.3307 41.2233 30.0014 42.2719 29.89 43.3817ZM20.8837 33.5371C20.635 33.3994 20.3786 33.3682 20.1144 33.4439C19.8501 33.5196 19.6491 33.6818 19.5112 33.9301C19.3734 34.1786 19.3422 34.4349 19.4179 34.6992C19.4936 34.9633 19.6558 35.1647 19.9043 35.3028C20.1527 35.4403 20.4089 35.4716 20.6734 35.3958C20.9378 35.3201 21.1388 35.1579 21.2768 34.9097C21.4145 34.661 21.4455 34.4044 21.3699 34.1402C21.2942 33.876 21.1321 33.6749 20.8837 33.5371Z" fill="#FF4769"/>
<path d="M44.5711 42.0153C44.5138 42.1419 44.4088 42.2269 44.2566 42.2705C44.1652 42.2966 43.7552 42.2187 43.0264 42.0369C42.298 41.8551 41.4912 41.6408 40.6066 41.3935C39.7216 41.1463 39.2495 41.0149 39.1901 40.9988L36.7142 43.4733L37.6923 46.8891L42.8981 48.1868C43.0928 48.252 43.2149 48.3711 43.2644 48.5439C43.3139 48.7166 43.2733 48.8822 43.1427 49.0406C42.7826 49.4738 42.3038 49.8667 41.7066 50.2192C41.1091 50.5718 40.5154 50.8326 39.9259 51.0014C38.0453 51.54 36.2451 51.3321 34.5257 50.3782C32.8058 49.4244 31.6769 48.0069 31.1384 46.1263C30.5998 44.2457 30.8076 42.4454 31.7615 40.7259C32.7153 39.0065 34.1326 37.8772 36.0132 37.3387C37.4467 36.9281 38.8823 36.9766 40.3198 37.4832C41.7571 37.99 42.9102 38.856 43.778 40.0814C44.2066 40.6955 44.4779 41.2009 44.5914 41.5973C44.6353 41.7493 44.6282 41.8888 44.5711 42.0153Z" fill="#FF4769"/>
<g clip-path="url(#clip0)">
<path d="M2.10991 30.4086C2.16827 30.2826 2.27401 30.1985 2.42665 30.1562C2.51826 30.1308 2.92755 30.2124 3.65471 30.4005C4.38153 30.5886 5.18645 30.8099 6.06886 31.0648C6.95167 31.3197 7.42263 31.4553 7.48192 31.4718L9.97923 29.0189L9.03075 25.5948L3.83642 24.2519C3.64235 24.185 3.52128 24.0649 3.47329 23.8916C3.42533 23.7185 3.46736 23.5533 3.59933 23.396C3.96318 22.9659 4.44536 22.5772 5.04556 22.2299C5.64613 21.8825 6.24208 21.6269 6.833 21.4632C8.71821 20.941 10.5165 21.1645 12.2276 22.1334C13.9392 23.102 15.0556 24.5293 15.5778 26.4145C16.1001 28.2997 15.8767 30.0981 14.9079 31.8093C13.9391 33.5203 12.5121 34.6373 10.6269 35.1595C9.18985 35.5575 7.7547 35.4966 6.32169 34.9775C4.88882 34.4582 3.74335 33.5823 2.88617 32.3494C2.46288 31.7316 2.19604 31.2238 2.08598 30.8265C2.04337 30.6741 2.05171 30.5346 2.10991 30.4086Z" fill="#FF4769"/>
</g>
<defs>
<clipPath id="clip0">
</clipPath>
</defs>
</svg>
