<svg width="20" height="20" viewBox="0 0 20 20" fill="none" xmlns="http://www.w3.org/2000/svg">
<path d="M20 7.24533V3.57346H18.9967V0.859375H14.9568V3.57346H13.082L13.0969 1.42731L6.9252 1.38428L6.90994 3.57346H5.04318V0.859375H1.00327V3.57346H0V7.24533H0.703125V15.4947H0V19.1666H20V15.4947H19.2188V7.24533H20ZM18.8281 17.9947H1.17188V16.6666H18.8281V17.9947ZM1.875 15.4947V7.27203H18.0469V15.4947H1.875ZM1.17188 4.74533H18.8281V6.07346H1.17188V4.74533ZM16.1287 2.03125H17.8249V3.57346H16.1287V2.03125ZM8.08884 2.56439L11.917 2.59094L11.9101 3.57346H8.08182L8.08884 2.56439ZM2.17514 2.03125H3.87131V3.57346H2.17514V2.03125Z" fill="#948DA5"/>
<path d="M11.8215 10.7974H15.9542V11.9692H11.8215V10.7974Z" fill="#948DA5"/>
<path d="M6.69818 9.31714H5.52631V10.7974H4.0459V11.9693H5.52631V13.4497H6.69818V11.9693H8.17844V10.7974H6.69818V9.31714Z" fill="#948DA5"/>
</svg>
