<svg width="20" height="20" viewBox="0 0 20 20" fill="none" xmlns="http://www.w3.org/2000/svg">
<path d="M14.5703 6.92688H15.5859C16.4258 6.92688 17.1094 6.24374 17.1094 5.40344V1.52344C17.1094 0.683594 16.4258 0 15.5859 0H14.5703C13.7305 0 13.0469 0.683594 13.0469 1.52344V2.87781H12.0117V1.6864H7.98828V2.87781H6.95312V1.52344C6.95312 0.683594 6.26953 0 5.42969 0H4.41406C3.57422 0 2.89062 0.683594 2.89062 1.52344V5.40344C2.89062 6.24374 3.57422 6.92688 4.41406 6.92688H5.42969C6.26953 6.92688 6.95312 6.24374 6.95312 5.40344V4.04968H7.98828V5.24109H9.41406V7.01172H7.8125V12.9883H9.41406V14.6875H7.98828V15.9503H6.95312V14.5966C6.95312 13.7563 6.26953 13.0731 5.42969 13.0731H4.41406C3.57422 13.0731 2.89062 13.7563 2.89062 14.5966V18.4766C2.89062 19.3164 3.57422 20 4.41406 20H5.42969C6.26953 20 6.95312 19.3164 6.95312 18.4766V17.1222H7.98828V18.2422H12.0117V17.1222H13.0469V18.4766C13.0469 19.3164 13.7305 20 14.5703 20H15.5859C16.4258 20 17.1094 19.3164 17.1094 18.4766V14.5966C17.1094 13.7563 16.4258 13.0731 15.5859 13.0731H14.5703C13.7305 13.0731 13.0469 13.7563 13.0469 14.5966V15.9503H12.0117V14.6875H10.5859V12.9883H12.1875V7.01172H10.5859V5.24109H12.0117V4.04968H13.0469V5.40344C13.0469 6.24374 13.7305 6.92688 14.5703 6.92688ZM5.78125 5.40344C5.78125 5.59769 5.62347 5.755 5.42969 5.755H4.41406C4.22028 5.755 4.0625 5.59769 4.0625 5.40344V1.52344C4.0625 1.32965 4.22028 1.17188 4.41406 1.17188H5.42969C5.62347 1.17188 5.78125 1.32965 5.78125 1.52344V5.40344ZM5.78125 18.4766C5.78125 18.6703 5.62347 18.8281 5.42969 18.8281H4.41406C4.22028 18.8281 4.0625 18.6703 4.0625 18.4766V14.5966C4.0625 14.4023 4.22028 14.245 4.41406 14.245H5.42969C5.62347 14.245 5.78125 14.4023 5.78125 14.5966V18.4766ZM14.2188 14.5966C14.2188 14.4023 14.3765 14.245 14.5703 14.245H15.5859C15.7797 14.245 15.9375 14.4023 15.9375 14.5966V18.4766C15.9375 18.6703 15.7797 18.8281 15.5859 18.8281H14.5703C14.3765 18.8281 14.2188 18.6703 14.2188 18.4766V14.5966ZM10.8398 17.0703H9.16016V15.8594H10.8398V17.0703ZM11.0156 11.8164H8.98438V8.18359H11.0156V11.8164ZM10.8398 4.06921H9.16016V2.85828H10.8398V4.06921ZM14.2188 1.52344C14.2188 1.32965 14.3765 1.17188 14.5703 1.17188H15.5859C15.7797 1.17188 15.9375 1.32965 15.9375 1.52344V5.40344C15.9375 5.59769 15.7797 5.755 15.5859 5.755H14.5703C14.3765 5.755 14.2188 5.59769 14.2188 5.40344V1.52344Z" fill="#948DA5"/>
</svg>
