<svg width="20" height="20" viewBox="0 0 20 20" fill="none" xmlns="http://www.w3.org/2000/svg">
<path d="M14.4669 0C13.0757 0 11.7769 0.62027 10.9032 1.70227L7.44339 5.98557L7.44324 5.98572L3.06198 1.5834H0V2.75528H1.69266V7.50259C1.69266 7.50275 1.69266 7.50275 1.6925 7.50275C0.664825 8.13049 0 9.25858 0 10.5301V16.8149H3.75549C4.21204 18.6421 5.86761 20 7.83432 20C9.80118 20 11.4566 18.6421 11.9128 16.8149H20V15.643H12.0348C11.9543 13.3957 10.1012 11.5926 7.83432 11.5926C5.56763 11.5926 3.71399 13.3957 3.63358 15.643H1.17188V12.7644H3.96484V9.41406H1.44806C1.78436 8.7793 2.40189 8.31207 3.15475 8.18558L7.80472 7.4028L11.8149 2.43866C12.4652 1.63361 13.4317 1.17188 14.4669 1.17188H20V0L14.4669 0ZM7.83432 12.7644C9.45465 12.7644 10.782 14.0422 10.8621 15.643C10.8649 15.6938 10.8661 15.7449 10.8661 15.7961C10.8661 16.1536 10.8038 16.4964 10.6894 16.8149C10.2704 17.9871 9.14886 18.8281 7.83432 18.8281C6.51993 18.8281 5.3981 17.9871 4.97849 16.8149C4.8645 16.4964 4.8024 16.1536 4.8024 15.7961C4.8024 15.7449 4.80347 15.6938 4.80621 15.643C4.88632 14.0422 6.21368 12.7644 7.83432 12.7644ZM2.79297 10.5859V11.5926H1.17188V10.5859H2.79297ZM2.96021 7.03003C2.92816 7.03552 2.89612 7.04147 2.86453 7.04758V3.04626L6.27396 6.47217L6.2738 6.47232L2.96021 7.03003Z" fill="#948DA5"/>
<path d="M7.83435 17.646C8.47812 17.646 9.04651 17.3152 9.37808 16.8148C9.57156 16.5226 9.68448 16.1723 9.68448 15.796C9.68448 15.7444 9.6825 15.6933 9.67822 15.643C9.6001 14.6945 8.80283 13.946 7.83435 13.946C6.86572 13.946 6.06876 14.6945 5.99063 15.643C5.98636 15.6933 5.98438 15.7444 5.98438 15.796C5.98438 16.1723 6.09729 16.5226 6.29062 16.8148C6.62189 17.3152 7.19028 17.646 7.83435 17.646ZM7.83435 15.1179C8.15555 15.1179 8.42548 15.3425 8.4949 15.643C8.50635 15.6921 8.5126 15.7434 8.5126 15.796C8.5126 16.1703 8.20819 16.4741 7.83435 16.4741C7.46021 16.4741 7.15625 16.1703 7.15625 15.796C7.15625 15.7434 7.1622 15.6921 7.1738 15.643C7.24338 15.3425 7.51285 15.1179 7.83435 15.1179Z" fill="#948DA5"/>
<path d="M13.1145 3.63562L9.60693 8.05807H20V6.8862H12.0322L14.0327 4.36392C14.288 4.04181 14.6703 3.85718 15.0812 3.85718H20V2.6853H15.0812C14.3103 2.6853 13.5934 3.03168 13.1145 3.63562Z" fill="#948DA5"/>
<path d="M17.2317 8.96582H19.414V10.1377H17.2317V8.96582Z" fill="#948DA5"/>
</svg>
