<svg width="20" height="20" viewBox="0 0 20 20" fill="none" xmlns="http://www.w3.org/2000/svg">
<g clip-path="url(#clip0)">
<path d="M20 3.93265L18.4479 2.38052L19.6458 1.1824L18.8176 0.354004L17.6195 1.55212L16.0674 0L7.91641 8.15094L6.772 7.00638L3.85605 9.92218L4.67178 10.7379L0 15.4099L4.59015 20L9.26208 15.3282L10.0778 16.144L12.9936 13.2281L11.8491 12.0836L20 3.93265ZM18.3432 3.93265L17.1504 5.12543L14.8746 2.84958L16.0674 1.6568L18.3432 3.93265ZM8.74496 8.97934L14.0462 3.67798L16.322 5.95383L11.0207 11.2552L8.74496 8.97934ZM3.98514 13.0815L6.91849 16.015L6.18484 16.7487L3.2515 13.8152L3.98514 13.0815ZM1.6568 15.4099L2.4231 14.6436L5.35645 17.5771L4.59015 18.3432L1.6568 15.4099ZM8.43369 14.4997L7.74689 15.1865L4.81354 12.2531L5.50034 11.5663L8.43369 14.4997ZM11.3368 13.228L10.0778 14.4872L5.51285 9.92218L6.772 8.66318L11.3368 13.228Z" fill="#948DA5"/>
</g>
<defs>
<clipPath id="clip0">
<rect width="20" height="20" fill="white"/>
</clipPath>
</defs>
</svg>
