<svg width="20" height="20" viewBox="0 0 20 20" fill="none" xmlns="http://www.w3.org/2000/svg">
<path d="M17.0711 2.92892C15.1823 1.04019 12.6711 0 10 0C7.32895 0 4.81766 1.04019 2.92892 2.92892C1.04019 4.81766 0 7.32895 0 10C0 12.6711 1.04019 15.1823 2.92892 17.0711C4.81766 18.9598 7.32895 20 10 20C12.6711 20 15.1823 18.9598 17.0711 17.0711C18.9598 15.1823 20 12.6711 20 10C20 7.32895 18.9598 4.81766 17.0711 2.92892ZM18.8077 10.5946C18.6745 12.5873 17.8773 14.4009 16.6357 15.8159L15.8711 15.0511L15.0424 15.8797L15.8066 16.644C14.391 17.8827 12.5777 18.6771 10.5859 18.8081V17.7257H9.41406V18.8081C7.42233 18.6771 5.60898 17.8827 4.19327 16.644L4.95743 15.8797L4.12888 15.0511L3.36411 15.8159C2.12265 14.4009 1.32553 12.5873 1.19232 10.5946H2.28287V9.42276H1.19125C1.32065 7.42752 2.11548 5.61096 3.35602 4.19342L4.12888 4.96628L4.95758 4.13757L4.18411 3.36411C5.60104 2.12082 7.41791 1.32324 9.41406 1.19186V2.29156H10.5859V1.19186C12.5821 1.32324 14.399 2.12082 15.8159 3.36426L15.0424 4.13757L15.8711 4.96628L16.644 4.19342C17.8845 5.61096 18.6794 7.42752 18.8087 9.42276H17.717V10.5946H18.8077Z" fill="#948DA5"/>
<path d="M10 3.35938C6.33835 3.35938 3.35938 6.33835 3.35938 10C3.35938 13.6617 6.33835 16.6406 10 16.6406C13.6617 16.6406 16.6406 13.6617 16.6406 10C16.6406 6.33835 13.6617 3.35938 10 3.35938ZM15.4688 10C15.4688 10.1463 15.4628 10.2914 15.4515 10.4349L12.6286 10.4091L11.7032 12.01L13.2007 14.4315C12.9333 14.6251 12.648 14.7952 12.3476 14.9387L10.9595 12.4812L9.11026 12.4799L7.76031 14.9889C7.45667 14.852 7.16782 14.688 6.89651 14.5003L8.33038 12.0711L7.40753 10.4688L4.55917 10.5534C4.54071 10.3714 4.53125 10.1868 4.53125 10C4.53125 9.85229 4.53735 9.70596 4.54895 9.561L7.37167 9.58908L8.29834 7.98874L6.80267 5.5661C7.06787 5.3743 7.35092 5.20554 7.64877 5.06317L9.0387 7.51953H10.8879L12.2359 5.00961C12.5397 5.14618 12.8287 5.30991 13.1001 5.49744L11.6679 7.9277L12.5922 9.52927L15.4405 9.44244C15.4591 9.62585 15.4688 9.81186 15.4688 10ZM13.257 8.33664L13.0246 7.93381L14.0013 6.2764C14.5303 6.84448 14.9402 7.52502 15.1906 8.27774L13.257 8.33664ZM11.1026 4.64294L10.1871 6.34766H9.72214L8.77289 4.6701C9.16748 4.57932 9.57825 4.53125 10 4.53125C10.3775 4.53125 10.7463 4.5697 11.1026 4.64294ZM5.91843 6.36459L6.93298 8.00812L6.69998 8.41049L4.7728 8.39142C5.00687 7.63229 5.40222 6.94351 5.91843 6.36459ZM4.8082 11.7184L6.74179 11.6609L6.97388 12.0639L5.99594 13.7206C5.46738 13.152 5.05798 12.4713 4.8082 11.7184ZM8.89343 15.3561L9.81018 13.6522L10.2753 13.6526L11.2231 15.3308C10.8298 15.421 10.4204 15.4688 10 15.4688C9.62097 15.4688 9.25095 15.43 8.89343 15.3561ZM14.0843 13.6324L13.0685 11.9897L13.3012 11.5871L15.2284 11.6048C14.9948 12.364 14.6001 13.0531 14.0843 13.6324Z" fill="#948DA5"/>
<path d="M10 8.16406C8.98773 8.16406 8.16406 8.98773 8.16406 10C8.16406 11.0123 8.98773 11.8359 10 11.8359C11.0123 11.8359 11.8359 11.0123 11.8359 10C11.8359 8.98773 11.0123 8.16406 10 8.16406ZM10 10.6641C9.63379 10.6641 9.33594 10.3662 9.33594 10C9.33594 9.63379 9.63379 9.33594 10 9.33594C10.3662 9.33594 10.6641 9.63379 10.6641 10C10.6641 10.3662 10.3662 10.6641 10 10.6641Z" fill="#948DA5"/>
</svg>
